<svg id="Capa_1" enable-background="new 0 0 512 512" height="512" viewBox="0 0 512 512" width="512" xmlns="http://www.w3.org/2000/svg"><g><g><g><g><g><g><g><path d="m429.639 504.5h-347.278c-12.147 0-21.995-9.847-21.995-21.995v-453.01c0-12.147 9.847-21.995 21.995-21.995h347.278c12.147 0 21.995 9.847 21.995 21.995v453.01c0 12.148-9.848 21.995-21.995 21.995z" fill="#f4fbff"/><path d="m429.639 7.5h-63.37c12.147 0 21.995 9.847 21.995 21.995v453.01c0 12.147-9.847 21.995-21.995 21.995h63.37c12.147 0 21.995-9.848 21.995-21.995v-453.01c0-12.147-9.848-21.995-21.995-21.995z" fill="#e4f6ff"/><path d="m97.391 458.158v-404.316c0-5.146 4.171-9.317 9.317-9.317h298.584c5.146 0 9.317 4.171 9.317 9.317v404.316c0 5.146-4.171 9.317-9.317 9.317h-298.584c-5.146 0-9.317-4.171-9.317-9.317z" fill="#e28086"/><path d="m405.292 44.525h-17.028v422.95h17.028c5.146 0 9.317-4.171 9.317-9.317v-404.316c0-5.146-4.171-9.317-9.317-9.317z" fill="#dd636e"/></g></g></g></g><g><g><g><g><g><g><path d="m328.542 311.768c15.668-9.189 25.292-26.001 25.286-44.165-.017-52.298-.026-80.913-.026-80.913 0-54.014-43.787-97.802-97.802-97.802-54.014 0-97.802 43.787-97.802 97.802 0 0-.009 28.614-.026 80.913-.006 18.164 9.617 34.976 25.286 44.165l11.032 6.47c18.653 10.939 39.886 16.706 61.51 16.706 21.624 0 42.857-5.767 61.51-16.706z" fill="#efc984"/><g><path d="m353.802 186.69c0-41.886-26.331-77.622-63.343-91.558v215.376c-.107 7.105-1.276 13.952-3.354 20.39 10.616-2.809 20.849-7.056 30.406-12.66l11.032-6.47c15.668-9.189 25.292-26.001 25.286-44.165-.019-52.299-.027-80.913-.027-80.913z" fill="#eabc6b"/></g><path d="m322.956 410.142-29.951-70.199v-69.159h-74.01v69.159l-29.952 70.199z" fill="#ffddce"/><path d="m376.993 356.106-68.529-13.188c-10.82 17.621-30.269 29.374-52.463 29.374s-41.643-11.753-52.463-29.374l-68.529 13.188c-16.312 3.139-29.797 13.238-37.616 26.86v75.191c0 5.146 4.171 9.317 9.317 9.317h298.584c5.146 0 9.317-4.171 9.317-9.317v-75.191c-7.821-13.621-21.306-23.72-37.618-26.86z" fill="#4a80aa"/><g><path d="m376.993 356.106-68.529-13.188c-9.137 14.881-24.428 25.576-42.329 28.543l47.489 9.139c.583.112 1.162.233 1.737.363 21.13 4.765 35.88 23.944 35.88 45.605v40.907h54.052c5.146 0 9.317-4.171 9.317-9.317v-75.191c-7.82-13.622-21.305-23.721-37.617-26.861z" fill="#407093"/></g><g><path d="m256 372.292c-13.473 0-25.933-4.331-36.067-11.676 3.173 37.028 13.792 77.748 22.693 106.86h26.748c8.9-29.111 19.52-69.831 22.693-106.86-10.134 7.345-22.595 11.676-36.067 11.676z" fill="#cbe2ff"/></g><path d="m321.589 180.146c-26.133-28.146-30.985-53.716-30.985-53.716-12.981 34.062-45.949 58.26-84.569 58.26-1.182 0-2.358-.023-3.528-.068-8.886-.341-16.268 6.782-16.268 15.675v28.572c.575 38.046 31.577 68.716 69.76 68.716 38.183 0 69.185-30.669 69.76-68.716v-38.076c.001-3.946-1.485-7.755-4.17-10.647z" fill="#ffddce"/><path d="m321.589 180.146c-26.133-28.146-30.985-53.716-30.985-53.716-.048.127-.097.254-.146.38v102.06c-.483 31.97-22.45 58.731-52.109 66.464 5.637 1.47 11.552 2.252 17.651 2.252 38.183 0 69.185-30.669 69.76-68.716v-38.076c0-3.947-1.486-7.756-4.171-10.648z" fill="#ffcbbe"/></g></g><g fill="#365e7d"><path d="m178.644 345.3c-2.979 1.826-3.571 5.906-1.233 8.503l14.511 16.118c2.074 2.304 1.876 5.857-.442 7.916l-9.568 8.5c-2.009 1.785-3.003 4.481-2.529 7.126 3.428 19.153 24.31 49.482 43.407 74.012h19.836c-10.598-34.662-23.633-85.782-23.633-127.532v-19.37z"/><path d="m333.356 345.3-40.35-24.728v19.37c0 41.75-13.035 92.87-23.633 127.532h19.836c19.098-24.529 39.979-54.859 43.407-74.012.474-2.646-.52-5.341-2.529-7.126l-9.568-8.5c-2.318-2.059-2.516-5.612-.442-7.916l14.51-16.118c2.34-2.595 1.748-6.676-1.231-8.502z"/></g></g><path d="m336.337 190.91h-10.577v34.944h10.577c9.652 0 17.475-7.826 17.472-17.478-.003-9.647-7.825-17.466-17.472-17.466z" fill="#ffddce"/></g></g></g></g></g><g><path d="m451.634 402.707c4.142 0 7.5-3.358 7.5-7.5v-365.712c0-16.264-13.231-29.495-29.495-29.495h-347.278c-16.264 0-29.495 13.231-29.495 29.495v453.01c0 16.263 13.231 29.495 29.495 29.495h347.278c16.264 0 29.495-13.231 29.495-29.495v-52.139c0-4.142-3.358-7.5-7.5-7.5s-7.5 3.358-7.5 7.5v52.139c0 7.992-6.502 14.495-14.495 14.495h-347.278c-7.992 0-14.495-6.502-14.495-14.495v-453.01c0-7.993 6.502-14.495 14.495-14.495h347.278c7.993 0 14.495 6.502 14.495 14.495v365.711c0 4.143 3.358 7.501 7.5 7.501z"/><path d="m97.391 109.293c-4.142 0-7.5 3.358-7.5 7.5v341.365c0 9.273 7.544 16.817 16.817 16.817h298.584c9.273 0 16.817-7.544 16.817-16.817v-404.316c0-9.273-7.544-16.817-16.817-16.817h-298.584c-9.273 0-16.817 7.544-16.817 16.817v27.866c0 4.142 3.358 7.5 7.5 7.5s7.5-3.358 7.5-7.5v-27.866c0-1.002.815-1.817 1.817-1.817h298.584c1.002 0 1.817.815 1.817 1.817v308.631c-8.146-6.88-17.984-11.669-28.699-13.731l-38.19-7.35c-.848-.955-1.828-1.802-2.945-2.486l-19.724-12.088c3.458-1.875 4.326-2.473 14.785-8.58 17.89-10.492 28.999-29.895 28.992-50.638-.007-19.935-.02-60.826-.026-80.91 0-58.063-47.238-105.302-105.302-105.302s-105.302 47.238-105.302 105.299l-.026 80.913c-.007 20.743 11.102 40.146 28.992 50.638 10.425 6.087 11.327 6.705 14.785 8.58l-19.724 12.088c-1.117.685-2.097 1.531-2.945 2.486l-38.19 7.35c-10.715 2.062-20.553 6.851-28.699 13.731v-245.68c0-4.142-3.358-7.5-7.5-7.5zm137.57 299.289c-2.586-12.154-4.577-23.596-5.982-34.283 8.471 3.612 17.609 5.493 27.021 5.493s18.551-1.881 27.021-5.493c-1.405 10.686-3.396 22.128-5.982 34.283-3.45 16.219-7.906 33.488-13.243 51.393h-15.592c-5.336-17.902-9.793-35.171-13.243-51.393zm101.376-210.172c5.495 0 9.968 4.469 9.972 9.964v.01c-.001 5.508-4.458 9.97-9.972 9.97h-3.077v-19.944zm-18.077 30.402c-.338 21.174-11.266 40.536-29.24 51.806-9.877 6.193-21.295 9.467-33.02 9.467-11.725 0-23.144-3.273-33.021-9.467-17.973-11.269-28.901-30.631-29.239-51.805v-28.515c0-4.638 3.829-8.352 8.48-8.181 36.378 1.395 69.178-17.231 87.191-46.397 4.762 10.563 12.942 24.732 26.681 39.53 1.398 1.505 2.167 3.474 2.167 5.544v38.018zm-91.765 70.426c9.301 3.843 19.31 5.847 29.505 5.847s20.204-2.004 29.504-5.847c-.105 16.949.339 43.774-.636 57.192-8.628 5.476-18.536 8.363-28.869 8.363-10.332 0-20.24-2.887-28.868-8.362-1.095-15.071-.636-38.465-.636-57.193zm180.614 85.832v73.088c0 1.002-.815 1.817-1.817 1.817h-100.965c21.02-28.404 33.008-50.299 35.674-65.19.922-5.149-.968-10.535-4.931-14.055l-8.129-7.222 13.222-14.688c.532-.591.989-1.232 1.399-1.896l34.013 6.546c13.087 2.52 24.472 10.354 31.534 21.6zm-92.604-20.167c-4.862 5.401-4.4 13.714 1.034 18.541l9.569 8.501c.102.09.126.186.127.197-2.448 13.678-16.516 37.693-39.704 67.833h-6.096c4.893-16.762 9.02-32.964 12.276-48.272 10.542-49.555 8.536-74.119 8.795-77.737l26.97 16.528zm10.243-59.605c-8.971 5.124-13.53 8.345-22.309 12.259l-1.935-1.186v-25.393c19.023-13.403 30.913-34.449 32.56-57.625h3.272c3.492 0 6.872-.718 9.979-2.074l.012 36.325c.006 15.442-8.263 29.885-21.579 37.694zm21.538-119.814c-3.051-1.331-6.414-2.074-9.95-2.074h-4.304c-1.034-3.08-2.693-5.937-4.948-8.367-20.296-21.86-27.009-42.15-28.659-48.192 1.982-5.611 3.45-11.418 4.385-17.358 25.733 15.662 43.052 43.825 43.476 75.991zm-159.034 119.814c-13.316-7.809-21.585-22.252-21.58-37.693l.026-80.915c0-49.792 40.509-90.302 90.302-90.302 11.482 0 22.469 2.159 32.581 6.084-.95 9.588-3.522 18.846-7.663 27.505-14.095 29.401-44.816 48.428-78.123 47.15-13.142-.506-24.056 9.997-24.056 23.17v28.572c0 .038 0 .076.001.113.376 24.886 12.542 47.755 32.754 61.996v25.393l-1.935 1.186c-8.775-3.912-13.338-7.135-22.307-12.259zm24.241 28.667c.262 3.643-1.755 28.143 8.795 77.738 3.257 15.31 7.384 31.513 12.276 48.272h-6.096c-23.188-30.14-37.256-54.154-39.703-67.826 0-.019.025-.114.127-.205l9.567-8.5c5.433-4.826 5.898-13.139 1.035-18.541l-12.972-14.41zm-75.068 29.506 34.013-6.546c.41.664.867 1.305 1.399 1.896l13.222 14.687-8.129 7.222c-3.962 3.521-5.852 8.906-4.93 14.054 2.665 14.891 14.654 36.787 35.674 65.19h-100.966c-1.002 0-1.817-.815-1.817-1.817v-73.087c7.062-11.246 18.446-19.08 31.534-21.599z"/></g></g></svg>