<svg id="Capa_1" enable-background="new 0 0 512.5 512.5" height="512" viewBox="0 0 512.5 512.5" width="512" xmlns="http://www.w3.org/2000/svg"><g><g id="Filled_32_"><path d="m307.835 512.5h-110v-250h-100c-12.15 0-22-9.85-22-22 0-12.15 9.85-22 22-22h58v-60.915c0-12.651 7.936-23.942 19.838-28.227l55.162-19.858h44l55.162 19.858c11.903 4.285 19.838 15.576 19.838 28.227v161.915h-42z" fill="#a0804c"/><path d="m197.835 482.5h110v30h-110z" fill="#876c3e"/><path d="m197.835 246.5h110v30h-110z" fill="#876c3e"/><path d="m212.835 77.5c0 22.091 17.909 40 40 40 22.091 0 40-17.909 40-40v-30h-80z" fill="#a0804c"/><path d="m252.836 7.5c-22.091 0-40 17.909-40 40h80c-.001-22.091-17.909-40-40-40z" fill="#616161"/><path d="m307.835 306.5-55 40-55-40v-30h110z" fill="#f88fa4"/><ellipse cx="360.835" cy="280.5" fill="#cda0e1" rx="80" ry="170"/><path d="m360.835 420.5c-41.804 0-76.112-68.139-79.686-155-.203 4.944-.314 9.944-.314 15 0 93.888 35.817 170 80 170s80-76.112 80-170c0-5.056-.11-10.056-.314-15-3.573 86.861-37.882 155-79.686 155z" fill="#b071d2"/><g fill="#feef8f"><path d="m122.835 108.5-25 30-25-30 25-60z"/><path d="m310.946 147.611c-7.422 12.598-13.766 27.941-18.689 45.311l68.578 68.578 68.578-68.578c-4.923-17.37-11.267-32.713-18.689-45.312l-49.889 49.89z"/><path d="m292.258 368.078c4.923 17.37 11.267 32.713 18.689 45.311l49.889-49.889 49.889 49.889c7.422-12.599 13.766-27.941 18.689-45.312l-68.579-68.577z"/></g><g fill="#ffc277"><path d="m299.843 360.493-7.585 7.585c4.923 17.37 11.267 32.713 18.689 45.311l12.534-12.534c-9.047-10.172-17.065-23.92-23.638-40.362z"/><path d="m398.19 400.854 12.535 12.535c7.422-12.599 13.766-27.941 18.689-45.312l-7.585-7.585c-6.574 16.444-14.592 30.191-23.639 40.362z"/></g></g><g fill="#fff"><path d="m246.835 189h15v15h-15z"/><path d="m304.835 258h15v15h-15z"/><path d="m304.835 288h15v15h-15z"/><path d="m401.835 258h15v15h-15z"/><path d="m401.835 288h15v15h-15z"/></g><g id="Outline_32_"><path d="m323.763 119.142-33.737-12.145c6.445-8.109 10.31-18.357 10.31-29.497v-30c0-26.191-21.309-47.5-47.5-47.5s-47.5 21.309-47.5 47.5c1.604 21.33-5.036 40.189 10.31 59.497l-42.512 15.305c-14.833 5.34-24.798 19.52-24.798 35.283v53.415h-43v-69.784l26.171-31.405-33.672-80.811-33.671 80.811 26.171 31.405v70.753c-29.246 7.694-29.22 49.374 0 57.062v243.469h15v-242.5h85v242.5h15v-191.272l40 29.091v162.181h15v-162.181l17.463-12.699c4.535 27.94 12.338 52.598 22.537 72.205v102.675h15v-79.61c54.016 65.5 133-1.43 133-152.39 0-133.374-67.183-214.518-124.572-161.358zm97.131 71.692-60.059 60.06-60.059-60.06c3.421-11.32 7.456-21.671 11.987-30.798l48.072 48.071 48.072-48.071c4.531 9.127 8.566 19.478 11.987 30.798zm-19.657-44.343-40.401 40.402-40.401-40.402c24.661-37.963 56.111-38.007 80.802 0zm-116.785-106.491h-63.234c7.878-33.206 55.355-33.215 63.234 0zm-64.117 15h65v22.5c0 17.921-14.579 32.5-32.5 32.5-17.92 0-32.5-14.579-32.5-32.5zm-138.829 52.189 16.329-39.189 16.329 39.189-16.329 19.595zm171.33 230.038-47.5-34.546v-18.681h68.021c.115 12.649.848 24.936 2.149 36.742zm20.679-68.227h-68.179v-35h16.5v-15h-16.5v-15h26.5v-15h-26.5v-16.5h-15v82.5h-92.5c-7.995 0-14.5-6.505-14.5-14.5s6.505-14.5 14.5-14.5h65.5v-68.415c0-9.458 5.979-17.966 14.879-21.17l50.328-18.118c7.113 4.252 15.421 6.703 24.293 6.703s17.18-2.451 24.294-6.703l35.776 12.878c-22.522 29.417-37.63 79.374-39.391 137.825zm46.919 145.509 40.401-40.402 40.401 40.402c-24.661 37.963-56.111 38.007-80.802 0zm88.473-13.545-48.072-48.071-48.072 48.071c-4.531-9.127-8.566-19.478-11.987-30.798l60.059-60.06 60.059 60.06c-3.421 11.32-7.456 21.671-11.987 30.798zm-48.072-112.07-64.508 64.508c-5.094-22.066-7.992-46.886-7.992-72.901s2.898-50.836 7.992-72.901l64.508 64.508 64.508-64.508c10.656 46.158 10.656 99.644 0 145.802z"/><path d="m353.335 406h15v15h-15z"/><path d="m353.335 140h15v15h-15z"/></g></g></svg>