<svg id="Capa_1" enable-background="new 0 0 512.011 512.011" height="512" viewBox="0 0 512.011 512.011" width="512" xmlns="http://www.w3.org/2000/svg"><g><path d="m251.634 445.21-13.369 32.958c-3.916 9.655.692 20.62 10.398 24.74 9.705 4.12 20.983-.102 25.444-9.525l27.555-58.209c-2.711.904-5.445-18.361-8.202-17.567-11.771 3.39-23.953 5.764-36.439 7.019-1.79.179-3.585 20.45-5.387 20.584z" fill="#756e78"/><path d="m301.661 435.173c-15.882 5.297-33.033 8.777-50.028 10.036l-6.257 15.426c3.338-.145 6.656-.374 9.952-.681 7.984-.745 13.722 7.521 10.291 14.768l-8.833 18.66c-1.943 4.105-5.182 7.221-9.019 9.093.298.145.586.302.895.433 9.705 4.12 20.983-.102 25.444-9.525l19.207-40.575z" fill="#665e66"/><path d="m478.969 89.04c-9.764 22.236-36.011 32.479-58.625 22.879s-33.032-35.408-23.269-57.643c4.359-9.928 13.948-21.89 25.24-31.237 13.999-11.586 30.615-19.153 43.133-13.839 22.614 9.6 23.285 57.605 13.521 79.84z" fill="#f9f6f9"/><path d="m465.447 9.2c-5.387-2.287-11.534-2.183-17.904-.405 21.398 10.8 21.882 57.417 12.3 79.24-6.246 14.225-19.24 23.529-33.712 25.883 21.138 5.777 43.898-4.516 52.838-24.877 9.764-22.236 9.093-70.241-13.522-79.841z" fill="#e2dfe2"/><path d="m330.011 149.531c-12.279-15.221-18.208-33.861-17.606-52.405.973-29.967-21.021-55.958-51.3-59.508-7.879-.924-15.892-1.415-24.016-1.448-112.452-.46-205.547 87.694-209.079 198.209-3.749 117.259 92.783 213.271 211.64 211.382 113.117-1.798 206.092-95.864 204.841-207.094-.01-.876-.025-1.75-.046-2.623-.726-30.193-24.93-54.342-55.586-56.247-22.303-1.385-43.898-11.734-58.848-30.266z" fill="#d8aa8b"/><path d="m444.444 236.044c-.726-30.193-24.931-54.342-55.586-56.247-22.303-1.385-43.898-11.734-58.848-30.266-12.279-15.221-18.208-33.861-17.606-52.405.973-29.967-21.021-55.958-51.3-59.508-7.879-.924-15.892-1.415-24.016-1.448-15.876-.065-31.365 1.638-46.272 4.919 3.008-.116 6.029-.18 9.067-.168 8.124.033 16.137.524 24.016 1.448 30.279 3.55 52.273 29.541 51.3 59.508-.602 18.545 5.327 37.185 17.606 52.405 14.95 18.532 36.545 28.881 58.848 30.266 30.655 1.904 54.859 26.053 55.586 56.247.021.873.036 1.748.046 2.624 1.094 97.297-69.91 181.46-163.428 202.222 111.204-4.03 201.868-97.126 200.632-206.973-.008-.876-.024-1.751-.045-2.624z" fill="#ce9875"/><path d="m392.756 97.304-57.962 142.892-20.064 49.464c5.056 6.91 12.536 12.851 21.77 16.6 8.252 3.35 16.721 4.476 24.454 3.658l23.288-49.196 65.839-139.084z" fill="#756e78"/><path d="m392.756 97.304-10.621 26.183 22.517 9.559c8.755 3.716 12.657 13.972 8.588 22.568l-58.128 122.794c-4.581 9.677-16.793 13.101-25.577 6.979-3.567-2.486-6.805-5.363-9.578-8.613l-5.227 12.886c5.056 6.91 12.536 12.851 21.77 16.6 8.25 3.35 16.917 4.455 24.454 3.658l23.288-49.196 65.839-139.084z" fill="#665e66"/><g><circle cx="228.596" cy="102.589" fill="#e28086" r="36.292"/><path d="m228.596 66.297c-2.551 0-5.04.266-7.442.767 16.473 3.434 28.85 18.033 28.85 35.525s-12.376 32.091-28.85 35.525c2.403.501 4.891.767 7.442.767 20.044 0 36.292-16.249 36.292-36.292 0-20.044-16.248-36.292-36.292-36.292z" fill="#dd636e"/></g><g><circle cx="125.3" cy="157.948" fill="#9bd069" r="36.292"/><path d="m125.3 121.656c-2.551 0-5.04.266-7.442.767 16.473 3.434 28.85 18.033 28.85 35.525s-12.376 32.091-28.85 35.525c2.403.501 4.891.767 7.442.767 20.044 0 36.292-16.249 36.292-36.292s-16.248-36.292-36.292-36.292z" fill="#7dbe3b"/></g><g><circle cx="99.467" cy="266.617" fill="#8993da" r="36.292"/><path d="m99.467 230.325c-2.551 0-5.04.266-7.442.767 16.473 3.434 28.85 18.033 28.85 35.525s-12.376 32.091-28.85 35.525c2.403.501 4.891.767 7.442.767 20.044 0 36.292-16.249 36.292-36.292.001-20.044-16.248-36.292-36.292-36.292z" fill="#707dd3"/></g><circle cx="173.057" cy="350.49" fill="#90d8f9" r="36.292"/><path d="m173.057 314.198c-2.551 0-5.04.266-7.442.767 16.473 3.434 28.85 18.033 28.85 35.525s-12.376 32.091-28.85 35.525c2.403.501 4.891.767 7.442.767 20.044 0 36.292-16.249 36.292-36.292.001-20.044-16.248-36.292-36.292-36.292z" fill="#75cef9"/><g><circle cx="284.342" cy="357.17" fill="#f9f6f9" r="36.292"/><path d="m284.342 320.878c-2.551 0-5.04.266-7.442.767 16.473 3.434 28.85 18.033 28.85 35.525s-12.376 32.091-28.85 35.525c2.403.501 4.891.767 7.442.767 20.044 0 36.292-16.249 36.292-36.292 0-20.044-16.249-36.292-36.292-36.292z" fill="#e2dfe2"/></g><path d="m453.484 138.195-75.316-31.972c-4.308-1.829-6.292-6.745-4.432-10.98l5.743-13.08c1.86-4.236 6.86-6.187 11.168-4.358l75.316 31.972c4.308 1.829 6.292 6.745 4.432 10.98l-5.743 13.08c-1.86 4.235-6.86 6.186-11.168 4.358z" fill="#ecbe6b"/><path d="m465.962 109.776-8.974-3.809c.26 2.18-.082 4.628-1.124 7.011l-7.706 17.625c-.705 1.614-1.658 3.013-2.751 4.164l8.076 3.428c4.308 1.829 9.308-.123 11.168-4.358l5.743-13.08c1.861-4.236-.124-9.152-4.432-10.981z" fill="#eab14d"/><g><path d="m228.596 58.797c-24.147 0-43.792 19.645-43.792 43.792s19.645 43.792 43.792 43.792 43.792-19.645 43.792-43.792-19.644-43.792-43.792-43.792zm0 72.584c-15.876 0-28.792-12.916-28.792-28.792s12.916-28.792 28.792-28.792 28.792 12.916 28.792 28.792-12.916 28.792-28.792 28.792z"/><path d="m125.3 114.156c-24.147 0-43.792 19.645-43.792 43.792s19.645 43.792 43.792 43.792 43.792-19.645 43.792-43.792-19.644-43.792-43.792-43.792zm0 72.585c-15.876 0-28.792-12.916-28.792-28.792s12.916-28.792 28.792-28.792 28.792 12.916 28.792 28.792-12.916 28.792-28.792 28.792z"/><path d="m99.467 222.825c-24.147 0-43.792 19.645-43.792 43.792s19.645 43.792 43.792 43.792 43.792-19.645 43.792-43.792-19.644-43.792-43.792-43.792zm0 72.584c-15.876 0-28.792-12.916-28.792-28.792s12.916-28.792 28.792-28.792 28.792 12.916 28.792 28.792-12.916 28.792-28.792 28.792z"/><path d="m240.549 357.169c0 24.147 19.645 43.792 43.792 43.792s43.793-19.645 43.793-43.792-19.646-43.792-43.793-43.792-43.792 19.645-43.792 43.792zm43.792-28.792c15.877 0 28.793 12.916 28.793 28.792s-12.916 28.792-28.793 28.792c-15.876 0-28.792-12.916-28.792-28.792s12.916-28.792 28.792-28.792z"/><path d="m485.048 61.452c-4.106-.52-7.862 2.389-8.382 6.499-.881 6.959-2.502 13.378-4.564 18.075-2.363 5.381-5.991 10.055-10.568 13.724l-60.507-25.686c-.394-5.718.578-11.448 2.916-16.772 8.636-19.666 41.196-48.568 58.574-41.188 8.595 3.648 12.135 16.067 13.48 23.145.773 4.07 4.707 6.739 8.769 5.967 4.069-.774 6.741-4.7 5.968-8.769-3.337-17.55-11.067-29.359-22.355-34.151-27.506-11.673-67.072 23.693-78.17 48.964-2.583 5.883-4.008 12.119-4.25 18.427-5.674.481-10.924 3.946-13.347 9.46l-5.743 13.079c-1.705 3.882-1.782 8.19-.219 12.13 1.577 3.974 4.627 7.089 8.588 8.77l2.565 1.089-19.89 49.034c-24.142-13.167-38.898-38.617-38.012-65.88.533-16.423-5.055-32.328-15.732-44.785-17.854-20.826-39.819-23.801-67.05-23.915-25.497-.105-50.484 4.172-74.343 12.709-3.9 1.396-5.931 5.688-4.535 9.588s5.693 5.93 9.588 4.535c22.213-7.948 45.479-11.907 69.229-11.833 7.744.032 15.541.502 23.175 1.397 26.328 3.087 45.535 25.363 44.677 51.815-1.087 33.473 17.339 64.75 47.328 80.36l-37.248 91.826c0-.229-.003-.458.005-.686.137-4.14-3.107-7.606-7.248-7.744-4.099-.144-7.606 3.107-7.744 7.248-1.205 36.369 48.43 62.563 80.679 43.389 3.561-2.117 4.73-6.719 2.613-10.279-1.717-2.888-5.071-4.202-8.176-3.466l45.717-96.576c10.764 9.825 15.995 22.295 16.156 37.798.583 51.784-19.79 101.228-57.365 139.226-60.608 61.29-148.396 75.298-221.741 44.741-73.253-30.519-125.104-102.879-122.381-188.099 2.306-72.103 44.333-134.729 105.528-167.271 3.657-1.945 5.045-6.486 3.101-10.144-1.945-3.657-6.484-5.044-10.144-3.101-65.479 34.822-110.984 102.052-113.477 180.036-3.898 121.955 96.58 221.353 219.767 219.108l-8.966 22.102c-5.499 13.559.833 28.696 14.417 34.463 13.436 5.703 28.907-.025 35.154-13.22l26.151-55.243c30.958-10.793 59.388-28.689 83.255-52.823 40.609-41.065 63.012-95.126 61.651-152.662-.46-19.071-9.508-36.998-24.462-48.951l20.342-42.973 2.73 1.159c8.083 3.432 17.476-.301 20.966-8.247l5.743-13.081c1.704-3.882 1.782-8.189.218-12.129-.577-1.453-1.355-2.789-2.298-3.984 4.47-4.478 8.084-9.748 10.655-15.602 2.664-6.067 4.639-13.751 5.711-22.222.521-4.108-2.389-7.861-6.499-8.381zm-217.72 428.721c-2.718 5.743-9.771 8.36-15.734 5.831-5.965-2.533-8.767-9.129-6.378-15.018l11.636-28.684c10.463-.996 20.778-2.75 30.882-5.235zm88.77-187.525c-12.791.002-25.123-5.893-32.751-14.278l68.266-168.292 42.391 17.996zm107.43-184.907-5.743 13.08c-.207.473-.847.692-1.37.47l-75.316-31.972c-.44-.187-.684-.636-.495-1.062l5.743-13.079c.206-.472.849-.693 1.37-.47l75.315 31.972c.308.131.445.342.507.496.112.284.019.496-.011.565z"/><path d="m129.265 350.49c0 14.458 7.134 27.974 19.082 36.154 3.419 2.34 8.086 1.467 10.426-1.951s1.466-8.086-1.951-10.426c-7.862-5.383-12.557-14.271-12.557-23.777 0-15.876 12.916-28.792 28.792-28.792 15.877 0 28.793 12.916 28.793 28.792 0 13.077-8.821 24.527-21.451 27.846-4.007 1.053-6.401 5.153-5.349 9.159 1.056 4.02 5.167 6.399 9.159 5.349 19.219-5.049 32.641-22.466 32.641-42.354 0-24.147-19.646-43.792-43.793-43.792s-43.792 19.644-43.792 43.792z"/></g></g></svg>