<svg id="Capa_1" enable-background="new 0 0 512 512" height="512" viewBox="0 0 512 512" width="512" xmlns="http://www.w3.org/2000/svg"><g><g><path d="m251.5 73.5h-96c-2.761 0-5 2.239-5 5v57h106v-57c0-2.761-2.239-5-5-5z" fill="#d19a6e"/><path d="m256.5 78.5v57h-30v-57c0-2.76-2.24-5-5-5h30c2.76 0 5 2.24 5 5z" fill="#bc845e"/><path d="m291.5 103.5h-81c-2.761 0-5 2.239-5 5v27h91v-27c0-2.761-2.239-5-5-5z" fill="#ffe07d"/><path d="m296.5 108.5v27h-30v-27c0-2.76-2.24-5-5-5h30c2.76 0 5 2.24 5 5z" fill="#ffd064"/><path d="m424.5 280.5h-12.456c-6.244 0-11.835-3.868-14.037-9.711l-32.356-85.867c-4.403-11.686-15.585-19.422-28.073-19.422h-230.268c-11.931 0-22.727 7.069-27.498 18.005l-40.644 93.171c-1.1 2.522-1.668 5.245-1.668 7.997v108.827h437v-63c0-27.614-22.386-50-50-50z" fill="#fc8d94"/><path d="m394.5 280.5c27.61 0 50 22.39 50 50v63h30v-63c0-27.61-22.39-50-50-50z" fill="#fa6f7c"/><path d="m412.04 280.5h-374.1c.28-1.31.69-2.59 1.23-3.82l40.64-93.18c4.77-10.93 15.57-18 27.5-18h230.27c12.49 0 23.67 7.74 28.07 19.42l32.36 85.87c2.2 5.84 7.79 9.71 14.03 9.71z" fill="#edebed"/><path d="m412.04 280.5h-31c-6.24 0-11.83-3.87-14.03-9.71l-32.36-85.87c-4.4-11.68-15.58-19.42-28.07-19.42h31c12.49 0 23.67 7.74 28.07 19.42l32.36 85.87c2.2 5.84 7.79 9.71 14.03 9.71z" fill="#e2e2e2"/><path d="m133.5 363.5h245.5v30h-245.5z" fill="#fa6f7c"/><path d="m396.5 438.5c-24.853 0-45-20.147-45-45 0-24.853 20.147-45 45-45 24.853 0 45 20.147 45 45 0 24.853-20.147 45-45 45z" fill="#6f6571"/><path d="m441.5 393.5c0 12.42-5.04 23.68-13.18 31.82s-19.4 13.18-31.82 13.18c-5.26 0-10.31-.9-15-2.57 6.4-2.25 12.13-5.92 16.82-10.61 8.14-8.14 13.18-19.4 13.18-31.82s-5.04-23.68-13.18-31.82c-4.69-4.69-10.42-8.36-16.82-10.61 4.69-1.67 9.74-2.57 15-2.57 12.42 0 23.68 5.04 31.82 13.18s13.18 19.4 13.18 31.82z" fill="#5d5360"/><path d="m115.5 438.5c-24.853 0-45-20.147-45-45 0-24.853 20.147-45 45-45 24.853 0 45 20.147 45 45 0 24.853-20.147 45-45 45z" fill="#6f6571"/><path d="m160.5 393.5c0 12.42-5.04 23.68-13.18 31.82s-19.4 13.18-31.82 13.18c-5.26 0-10.31-.9-15-2.57 6.4-2.25 12.13-5.92 16.82-10.61 8.14-8.14 13.18-19.4 13.18-31.82s-5.04-23.68-13.18-31.82c-4.69-4.69-10.42-8.36-16.82-10.61 4.69-1.67 9.74-2.57 15-2.57 12.42 0 23.68 5.04 31.82 13.18s13.18 19.4 13.18 31.82z" fill="#5d5360"/><path d="m115.5 408.5c-8.284 0-15-6.716-15-15 0-8.284 6.716-15 15-15 8.284 0 15 6.716 15 15 0 8.284-6.716 15-15 15z" fill="#f4f4f4"/><path d="m396.5 408.5c-8.284 0-15-6.716-15-15 0-8.284 6.716-15 15-15 8.284 0 15 6.716 15 15 0 8.284-6.716 15-15 15z" fill="#f4f4f4"/><path d="m17.5 358.5h20v35h-20c-5.523 0-10-4.477-10-10v-15c0-5.523 4.477-10 10-10z" fill="#edebed"/><path d="m474.5 358.5h20c5.523 0 10 4.477 10 10v15c0 5.523-4.477 10-10 10h-20z" fill="#e2e2e2"/><g fill="#fff"><path d="m355.143 250.5h-71.643c-2.761 0-5-2.239-5-5v-45c0-2.761 2.239-5 5-5h51.557c2.073 0 3.932 1.28 4.671 3.216l18.218 47.713c.75 1.965-.7 4.071-2.803 4.071z"/><path d="m109.773 195.5h28.727c2.761 0 5 2.239 5 5v45c0 2.761-2.239 5-5 5h-48.363c-3.604 0-6.024-3.697-4.583-7l19.636-45c.796-1.822 2.595-3 4.583-3z"/><path d="m178.5 195.5h65c2.761 0 5 2.239 5 5v45c0 2.761-2.239 5-5 5h-65c-2.761 0-5-2.239-5-5v-45c0-2.761 2.239-5 5-5z"/></g></g><g><path d="m396.5 371c-12.406 0-22.5 10.093-22.5 22.5s10.094 22.5 22.5 22.5 22.5-10.093 22.5-22.5-10.094-22.5-22.5-22.5zm0 30c-4.136 0-7.5-3.364-7.5-7.5s3.364-7.5 7.5-7.5 7.5 3.364 7.5 7.5-3.364 7.5-7.5 7.5z"/><path d="m115.5 371c-12.406 0-22.5 10.093-22.5 22.5s10.094 22.5 22.5 22.5 22.5-10.093 22.5-22.5-10.094-22.5-22.5-22.5zm0 30c-4.136 0-7.5-3.364-7.5-7.5s3.364-7.5 7.5-7.5 7.5 3.364 7.5 7.5-3.364 7.5-7.5 7.5z"/><path d="m494.5 351h-12.5v-20.5c0-31.706-25.794-57.5-57.5-57.5h-12.456c-3.104 0-5.924-1.951-7.018-4.855l-32.356-85.867c-5.472-14.522-19.574-24.278-35.092-24.278h-33.578v-15h26c4.143 0 7.5-3.358 7.5-7.5s-3.357-7.5-7.5-7.5h-26v-19.5c0-6.893-5.607-12.5-12.5-12.5h-27.5v-17.5c0-6.893-5.607-12.5-12.5-12.5h-96c-6.893 0-12.5 5.607-12.5 12.5v49.5h-25c-4.143 0-7.5 3.358-7.5 7.5s3.357 7.5 7.5 7.5h25v15h-35.69c-14.916 0-28.407 8.834-34.371 22.506l-40.646 93.173c-1.521 3.49-2.293 7.189-2.293 10.994v38.827c0 4.142 3.357 7.5 7.5 7.5s7.5-3.358 7.5-7.5v-35.5h367.044 12.456c23.435 0 42.5 19.065 42.5 42.5v55.5h-18.544c-3.651-25.407-25.554-45-51.956-45-14.289 0-27.257 5.745-36.733 15.039-.252-.026-.508-.039-.767-.039h-206.808c-9.472-9.27-22.423-15-36.692-15-26.401 0-48.304 19.593-51.956 45h-18.544v-27.5c0-4.142-3.357-7.5-7.5-7.5-.127 0-.25.013-.375.019-.125-.006-.248-.019-.375-.019h-19.25c-9.649 0-17.5 7.851-17.5 17.5v15c0 9.649 7.851 17.5 17.5 17.5h46.044c3.651 25.407 25.554 45 51.956 45s48.304-19.593 51.956-45h177.088c3.651 25.407 25.554 45 51.956 45s48.304-19.593 51.956-45h46.044c9.649 0 17.5-7.851 17.5-17.5v-15c0-9.649-7.851-17.5-17.5-17.5zm-336.5-270h91v15h-38.5c-6.893 0-12.5 5.607-12.5 12.5v19.5h-40zm0 62h85.333c4.143 0 7.5-3.358 7.5-7.5s-3.357-7.5-7.5-7.5h-30.333v-17h76v17h-10.667c-4.143 0-7.5 3.358-7.5 7.5s3.357 7.5 7.5 7.5h10.667v15h-131zm-71.313 43.504c3.579-8.204 11.673-13.504 20.623-13.504h230.269c9.311 0 17.772 5.854 21.055 14.566l32.192 85.434h-341.872zm-71.687 196.996v-15c0-1.378 1.121-2.5 2.5-2.5h12.5v20h-12.5c-1.379 0-2.5-1.122-2.5-2.5zm329.544 2.5h-177.088c-.761-5.294-2.31-10.336-4.532-15h186.152c-2.222 4.664-3.771 9.706-4.532 15zm-229.044 45c-20.678 0-37.5-16.822-37.5-37.5s16.822-37.5 37.5-37.5 37.5 16.822 37.5 37.5-16.822 37.5-37.5 37.5zm281 0c-20.678 0-37.5-16.822-37.5-37.5s16.822-37.5 37.5-37.5 37.5 16.822 37.5 37.5-16.822 37.5-37.5 37.5zm100.5-47.5c0 1.378-1.121 2.5-2.5 2.5h-12.5v-20h12.5c1.379 0 2.5 1.122 2.5 2.5z"/><path d="m283.5 258h71.644c3.455 0 6.688-1.699 8.648-4.545 1.959-2.846 2.394-6.472 1.161-9.7l-18.219-47.716c-1.838-4.808-6.531-8.039-11.678-8.039h-51.556c-6.893 0-12.5 5.607-12.5 12.5v45c0 6.893 5.607 12.5 12.5 12.5zm2.5-55h47.336l15.272 40h-62.608z"/><path d="m79.679 252.347c2.317 3.54 6.228 5.653 10.458 5.653h48.363c6.893 0 12.5-5.607 12.5-12.5v-45c0-6.893-5.607-12.5-12.5-12.5h-28.727c-4.97 0-9.467 2.943-11.457 7.501l-19.636 45c-1.692 3.877-1.319 8.306.999 11.846zm31.731-49.347h24.59v40h-42.044z"/><path d="m178.5 258h65c6.893 0 12.5-5.607 12.5-12.5v-45c0-6.893-5.607-12.5-12.5-12.5h-65c-6.893 0-12.5 5.607-12.5 12.5v45c0 6.893 5.607 12.5 12.5 12.5zm2.5-55h60v40h-60z"/><path d="m296.5 318c4.143 0 7.5-3.358 7.5-7.5s-3.357-7.5-7.5-7.5h-18c-4.143 0-7.5 3.358-7.5 7.5s3.357 7.5 7.5 7.5z"/></g></g></svg>