<?xml version="1.0" encoding="iso-8859-1"?>
<!-- Generator: Adobe Illustrator 19.0.0, SVG Export Plug-In . SVG Version: 6.00 Build 0)  -->
<svg version="1.1" id="Capa_1" xmlns="http://www.w3.org/2000/svg" xmlns:xlink="http://www.w3.org/1999/xlink" x="0px" y="0px"
	 viewBox="0 0 512 512" style="enable-background:new 0 0 512 512;" xml:space="preserve">
<path style="fill:#3A536E;" d="M504.395,82.395v347.203c0,17.939-14.554,32.493-32.503,32.493H40.105
	c-17.949,0-32.493-14.554-32.493-32.493V82.395c0-17.949,14.543-32.493,32.493-32.493h431.787
	C489.841,49.902,504.395,64.445,504.395,82.395z"/>
<path style="fill:#3080A6;" d="M504.395,403.655v25.942c0,17.939-14.554,32.493-32.503,32.493H40.105
	c-17.949,0-32.493-14.554-32.493-32.493v-25.942H504.395z"/>
<path style="fill:#3DA4D4;" d="M504.395,403.655v25.942c0,17.939-14.554,32.493-32.503,32.493H140.674v-58.435h363.722V403.655z"/>
<rect x="122.657" y="403.647" style="fill:#FCDF5D;" width="40.94" height="58.448"/>
<circle style="fill:#FF598E;" cx="256.006" cy="234.157" r="95.807"/>
<polygon style="fill:#FFFFFF;" points="304.131,234.158 229.715,191.194 229.715,277.122 "/>
<path d="M504.392,335.549c4.202,0,7.608-3.406,7.608-7.608V82.396c0-22.111-17.994-40.101-40.111-40.101H40.101
	C17.989,42.295,0,60.285,0,82.396v347.208c0,22.111,17.989,40.101,40.101,40.101h431.787c22.117,0,40.111-17.989,40.111-40.101
	v-74.365c0-4.202-3.406-7.608-7.608-7.608s-7.608,3.406-7.608,7.608v40.806H15.216v-18.713H50.32c4.202,0,7.608-3.406,7.608-7.608
	s-3.406-7.608-7.608-7.608H15.216v-18.713h75.967c4.202,0,7.608-3.406,7.608-7.608s-3.406-7.608-7.608-7.608H15.216V82.396
	c0-13.721,11.163-24.885,24.885-24.885h431.787c13.727,0,24.896,11.163,24.896,24.885v245.545
	C496.784,332.142,500.19,335.549,504.392,335.549z M496.784,429.604c0,13.721-11.168,24.885-24.896,24.885H171.21V411.26h325.573
	v18.344H496.784z M155.995,411.259v43.229h-25.726v-43.229H155.995z M115.053,411.259v43.229H40.101
	c-13.722,0-24.885-11.163-24.885-24.884V411.26h99.837V411.259z"/>
<path d="M304.48,142.792c-14.822-7.88-31.585-12.045-48.477-12.045c-57.021,0-103.411,46.39-103.411,103.411
	c0,57.022,46.39,103.412,103.411,103.412c57.022,0,103.412-46.39,103.412-103.412c0-26.405-9.951-51.542-28.018-70.781
	c-2.878-3.063-7.691-3.214-10.754-0.338c-3.063,2.877-3.214,7.691-0.338,10.754c15.407,16.406,23.893,37.845,23.893,60.364
	c0,48.631-39.564,88.196-88.196,88.196s-88.195-39.564-88.195-88.196s39.564-88.195,88.195-88.195
	c14.41,0,28.704,3.549,41.334,10.264c3.71,1.973,8.317,0.563,10.289-3.147C309.597,149.371,308.19,144.763,304.48,142.792z"/>
<path d="M225.911,184.606c-2.353,1.359-3.804,3.87-3.804,6.588v85.927c0,2.718,1.451,5.229,3.804,6.588
	c1.177,0.68,2.49,1.019,3.804,1.019c1.314,0,2.627-0.34,3.804-1.019l74.415-42.964c2.353-1.359,3.804-3.87,3.804-6.588
	c0-2.718-1.451-5.229-3.804-6.588l-74.415-42.964C231.165,183.247,228.265,183.247,225.911,184.606z M237.322,204.372l51.592,29.787
	l-51.592,29.787V204.372z"/>
<g>
</g>
<g>
</g>
<g>
</g>
<g>
</g>
<g>
</g>
<g>
</g>
<g>
</g>
<g>
</g>
<g>
</g>
<g>
</g>
<g>
</g>
<g>
</g>
<g>
</g>
<g>
</g>
<g>
</g>
</svg>
