<?xml version="1.0" encoding="iso-8859-1"?>
<!-- Generator: Adobe Illustrator 21.0.0, SVG Export Plug-In . SVG Version: 6.00 Build 0)  -->
<svg xmlns="http://www.w3.org/2000/svg" xmlns:xlink="http://www.w3.org/1999/xlink" version="1.1" id="Capa_1" x="0px" y="0px" viewBox="0 0 512 512" style="enable-background:new 0 0 512 512;" xml:space="preserve" width="512" height="512">
<g>
	<path style="fill:#685C79;" d="M479,244.333v160.67h-90v-160.67c0-12.831,4.818-25.193,13.5-34.641v0   c8.682-9.447,13.5-21.81,13.5-34.641v-40.049h36v40.049c0,12.831,4.818,25.193,13.5,34.641v0   C474.182,219.139,479,231.502,479,244.333z"/>
	<path style="fill:#594F69;" d="M465.5,209.692c-8.682-9.447-13.5-21.81-13.5-34.641v-40.049h-30v40.049   c0,12.831,4.818,25.194,13.5,34.641s13.5,21.81,13.5,34.641v160.67h30v-160.67C479,231.502,474.182,219.139,465.5,209.692z"/>
	<path style="fill:#B5FCFF;" d="M321.204,360.002h-0.407c-19.217,0-34.796-15.579-34.796-34.796v-71.204h70v71.204   C356,344.423,340.421,360.002,321.204,360.002z"/>
	<path style="fill:#71F6FC;" d="M326,254.002v71.204c0,13.925-8.183,25.935-20,31.496c4.491,2.114,9.504,3.301,14.796,3.301h0.407   c19.218,0,34.796-15.579,34.796-34.796v-71.204H326z"/>
	<path style="fill:#FFBD54;" d="M454,135.002h-40c-2.209,0-4-1.791-4-4v-22c0-2.209,1.791-4,4-4h40c2.209,0,4,1.791,4,4v22   C458,133.211,456.209,135.002,454,135.002z"/>
	<path style="fill:#EBAD88;" d="M413,465.002h-76v-30h90v16C427,458.734,420.732,465.002,413,465.002z"/>
	<path style="fill:#E8916F;" d="M397,435.002v16c0,7.732-6.268,14-14,14h30c7.732,0,14-6.268,14-14v-16H397z"/>
	<rect x="337" y="465.002" style="fill:#D5DFE8;" width="60" height="39.5"/>
	<rect x="367" y="465.002" style="fill:#CAD2DB;" width="30" height="39.5"/>
	<rect x="125.5" y="316.002" style="fill:#D98868;" width="60" height="70"/>
	<g>
		<path style="fill:#E8916F;" d="M62.753,171.002c0,21.539-13.207,39-29.498,39S7.5,189.95,7.5,168.411s9.464-36.409,25.755-36.409    S62.753,149.463,62.753,171.002z"/>
		<path style="fill:#D98868;" d="M248.247,171.002c0,21.539,13.207,39,29.498,39S303.5,189.95,303.5,168.411    s-9.464-36.409-25.755-36.409S248.247,149.463,248.247,171.002z"/>
	</g>
	<path style="fill:#EBAD88;" d="M47.5,216.073v-80.214c0-56.254,45.603-101.856,101.856-101.856h12.288   c56.254,0,101.856,45.603,101.856,101.856v80.214c0,59.608-48.322,107.929-107.929,107.929h-0.141   C95.822,324.002,47.5,275.681,47.5,216.073z"/>
	<path style="fill:#E8916F;" d="M161.644,34.002h-12.288c-2.985,0-5.937,0.136-8.856,0.388c52.106,4.489,93,48.2,93,101.469v80.214   c0,54.541-40.459,99.625-93,106.897c4.881,0.675,9.863,1.033,14.929,1.033h0.141c59.608,0,107.929-48.322,107.929-107.93v-80.214   C263.5,79.605,217.897,34.002,161.644,34.002z"/>
	<path style="fill:#D5DFE8;" d="M296.5,484.07v20.432h-282V484.07c0-59.409,41.708-107.568,93.161-107.568h95.679   C254.792,376.502,296.5,424.661,296.5,484.07z"/>
	<path style="fill:#CAD2DB;" d="M203.339,376.502h-30c51.453,0,93.161,48.159,93.161,107.568v20.432h30V484.07   C296.5,424.661,254.792,376.502,203.339,376.502z"/>
	<path style="fill:#FF2C5C;" d="M244.97,504.502H66.03l15.976-129.918c0.099-0.806,0.675-1.471,1.458-1.685l38.283-10.453   c1.075-0.293,2.182,0.348,2.462,1.426l29.857,114.837c0.384,1.478,2.483,1.478,2.868,0l29.866-114.837   c0.28-1.078,1.388-1.72,2.462-1.426l38.282,10.453c0.783,0.214,1.359,0.88,1.458,1.685L244.97,504.502z"/>
	<g>
		<path style="fill:#E62753;" d="M229.004,374.584c-0.099-0.806-0.675-1.472-1.458-1.685l-38.282-10.453    c-1.075-0.293-2.182,0.348-2.462,1.426l-1.48,5.689l12.225,3.338c0.783,0.214,1.359,0.88,1.458,1.685l15.966,129.918h30    L229.004,374.584z"/>
	</g>
	<g>
		<path style="fill:#685C79;" d="M148.979,366.752c0,9.389-27.32,17-34.978,17s-0.366-14.766-0.366-17s-7.292-17,0.366-17    S148.979,357.363,148.979,366.752z"/>
		<path style="fill:#685C79;" d="M162.021,366.752c0,9.389,27.32,17,34.978,17s0.366-14.766,0.366-17s7.292-17-0.366-17    S162.021,357.363,162.021,366.752z"/>
	</g>
	<ellipse style="fill:#594F69;" cx="155.5" cy="366.752" rx="15" ry="14.891"/>
	<g>
		<path style="fill:#B0693C;" d="M274.921,168.628c-3.156,8.452-13.672,11.687-20.732,6.077    c-20.601-16.305-25.009-63.799-25.009-63.799c-34.478-20.325-40.212-42.67-40.212-42.67    c-19.929,33.938-107.152,42.67-107.152,42.67s-4.389,47.494-24.99,63.799c-7.06,5.61-17.575,2.375-20.732-6.077    c-9.712-25.935-3.829-57.722-3.829-57.722s3.511-86.723,79.509-99.663c80.611-13.706,94.619,14.66,94.619,14.66    c75.643,3.74,72.337,85.003,72.337,85.003S284.615,142.693,274.921,168.628z"/>
	</g>
	<g>
		<path style="fill:#9C5D35;" d="M278.731,110.906c0,0,3.306-81.264-72.337-85.003c0,0-11.117-22.51-70.532-17.735    c16.695,1.646,26.828,6.079,32.787,10.102c6.624,4.471,13.981,7.766,21.813,9.361c61.151,12.46,58.27,83.276,58.27,83.276    s5.422,29.334-2.746,54.635c2.398,3.577,5.118,6.722,8.204,9.164c7.06,5.61,17.575,2.375,20.732-6.077    C284.615,142.693,278.731,110.906,278.731,110.906z"/>
	</g>
	<path style="fill:#FFD659;" d="M504.5,405.002h-246v15.179c0,8.186,6.636,14.821,14.821,14.821h216.357   c8.186,0,14.821-6.636,14.821-14.821V405.002z"/>
	<path style="fill:#FFBD54;" d="M489.678,435.002h-30c8.186,0,14.822-6.636,14.822-14.821v-15.179h30v15.179   C504.5,428.366,497.864,435.002,489.678,435.002z"/>
	<g>
		<path d="M156.58,274.51c41.527,0,54.075-29.718,54.59-30.984c1.559-3.838-0.277-8.241-4.115-9.801    c-3.836-1.558-8.199,0.261-9.759,4.098c-0.378,0.886-9.609,21.687-40.716,21.687c-31.402,0-42.557-21.106-43.08-22.137    c-1.83-3.692-6.302-5.223-10.011-3.409c-3.723,1.817-5.267,6.308-3.449,10.029C100.648,245.24,115.412,274.51,156.58,274.51z"/>
		<path d="M215.577,176.648c0.409-4.121-2.601-7.795-6.723-8.203c-17.201-1.711-30.469,4.016-31.025,4.261    c-3.792,1.667-5.515,6.092-3.847,9.884c1.235,2.81,3.984,4.483,6.869,4.483c1.008,0,2.033-0.204,3.015-0.637    c0.101-0.044,10.387-4.361,23.507-3.065C211.492,183.782,215.168,180.771,215.577,176.648z"/>
		<path d="M103.627,183.371c13.058-1.292,23.307,2.981,23.534,3.078c0.974,0.423,1.988,0.624,2.987,0.624    c2.884,0,5.634-1.674,6.869-4.483c1.668-3.792-0.055-8.217-3.847-9.884c-0.557-0.244-13.823-5.973-31.025-4.261    c-4.122,0.408-7.132,4.082-6.723,8.203C95.832,180.771,99.488,183.787,103.627,183.371z"/>
		<path d="M504.5,397.501h-18v-13.667c0-4.143-3.357-7.5-7.5-7.5s-7.5,3.357-7.5,7.5v13.667h-75V244.332    c0-10.98,4.092-21.48,11.522-29.565c9.98-10.861,15.478-24.966,15.478-39.715v-32.549h21v32.549    c0,14.75,5.497,28.854,15.478,39.715c7.431,8.085,11.522,18.585,11.522,29.565v107.336c0,4.143,3.357,7.5,7.5,7.5    s7.5-3.357,7.5-7.5V244.332c0-14.75-5.497-28.854-15.478-39.715c-7.431-8.085-11.522-18.585-11.522-29.565v-33.953    c3.572-1.954,6-5.746,6-10.096v-22c0-6.341-5.159-11.5-11.5-11.5h-40c-6.341,0-11.5,5.159-11.5,11.5v22    c0,4.35,2.428,8.142,6,10.096v33.953c0,10.98-4.092,21.48-11.522,29.565c-9.98,10.861-15.478,24.966-15.478,39.715v153.169    h-53.204v-30.606c19.956-3.385,35.204-20.785,35.204-41.689v-71.203c0-4.143-3.357-7.5-7.5-7.5h-70c-4.143,0-7.5,3.357-7.5,7.5    v71.203c0,20.762,15.041,38.065,34.796,41.616v30.679h-43.635c-9.658-9.661-20.941-17.184-32.994-22.027l-0.225-1.819    c-0.479-3.851-3.205-6.989-6.917-7.988l-22.265-6.08c1.048-4.456,1.321-9.225-1.415-13.017c-2.008-2.784-5.149-4.317-8.846-4.317    c-1.089,0-2.45,0.114-4,0.328v-17.347c13.469-4.616,26.077-11.687,37.085-21c3.163-2.675,3.558-7.407,0.882-10.569    c-2.675-3.162-7.408-3.558-10.569-0.882c-18.081,15.297-41.104,23.72-64.827,23.72h-0.141C100.053,316.502,55,271.449,55,216.073    v-32.03c2.313-0.74,4.508-1.889,6.48-3.456c18.363-14.534,25.043-48.908,27.059-62.935c8.266-1.096,24.091-3.552,41.297-8.102    c26.602-7.034,45.859-16.225,57.487-27.409c5.439,8.866,15.768,21.385,34.829,33.275c1.588,12.19,7.948,49.79,27.371,65.163    c1.974,1.569,4.166,2.73,6.477,3.471v32.024c0,19.39-5.534,38.207-16.003,54.415c-2.248,3.479-1.249,8.122,2.23,10.369    c1.258,0.813,2.668,1.201,4.063,1.201c2.461,0,4.872-1.211,6.307-3.432c11.924-18.459,18.27-39.853,18.392-61.909    c2.216,0.509,4.475,0.786,6.752,0.786c19.272,0,33.26-20.645,33.26-49.089c0-21.859-8.713-37.416-23.164-42.292    c-0.371-7.834-1.239-13.667-1.589-15.769c0.066-4.304-0.147-23.565-8.392-43.42c-8.45-20.353-26.985-44.922-67.411-48.276    c-7.27-8.639-31.156-26.501-99.929-14.805C84.062,8.355,62.95,21.583,47.767,43.17c-2.383,3.388-1.568,8.066,1.82,10.449    c3.389,2.385,8.067,1.567,10.449-1.82c12.798-18.195,30.629-29.352,52.995-33.16c69.936-11.887,85.595,9.077,86.69,10.708    c1.127,2.602,3.448,3.907,6.303,4.049c67.191,3.322,65.325,74.203,65.213,77.206c-0.022,0.555,0.019,1.116,0.118,1.662    c0.055,0.299,5.364,30.131-3.461,53.741c-0.697,1.867-2.201,3.244-4.128,3.779c-0.268,0.074-0.605,0.145-0.987,0.185    c-0.018,0.002-0.035,0.001-0.053,0.003c-1.076,0.103-2.508-0.054-3.883-1.147c-14.794-11.709-21.038-46.282-22.195-58.612    c-0.223-2.398-1.584-4.544-3.659-5.768c-30.902-18.217-36.722-37.952-36.757-38.072c-0.755-2.942-3.211-5.139-6.219-5.562    c-3.004-0.423-5.975,1.009-7.514,3.629c-14.745,25.11-78.219,36.669-101.433,39.004c-3.571,0.359-6.389,3.199-6.719,6.772    c-1.139,12.321-7.343,46.868-22.188,58.618c-1.333,1.06-2.724,1.231-3.79,1.143c-0.086-0.01-0.173-0.017-0.26-0.024    c-0.328-0.042-0.623-0.104-0.861-0.169c-1.927-0.535-3.431-1.912-4.131-3.785c-8.84-23.606-3.531-53.436-3.478-53.727    c0.063-0.344,0.104-0.702,0.118-1.052c0.007-0.147,0.711-14.997,6.848-32.692c1.357-3.913-0.715-8.185-4.629-9.543    c-3.917-1.358-8.186,0.716-9.543,4.629c-6.288,18.133-7.456,33.362-7.635,36.443c-0.309,1.803-1.25,7.826-1.639,16.065    C8.712,131,0,146.556,0,168.413c0,28.444,13.987,49.089,33.26,49.089c2.276,0,4.533-0.277,6.748-0.785    c0.277,50.273,32.853,93.036,77.992,108.551v17.31c-1.55-0.214-2.911-0.328-4-0.328c-3.696,0-6.838,1.533-8.846,4.317    c-2.736,3.792-2.462,8.562-1.415,13.018l-22.229,6.073c-3.733,1.005-6.459,4.14-6.944,8.004l-0.223,1.811    c-18.647,7.487-35.283,21.367-47.214,39.52C13.961,435.034,7,458.919,7,484.071v20.43c0,4.143,3.357,7.5,7.5,7.5h282    c4.143,0,7.5-3.357,7.5-7.5v-20.43c0-14.437-2.282-28.371-6.775-41.57H329.5V504.5c0,4.143,3.357,7.5,7.5,7.5h60    c4.143,0,7.5-3.357,7.5-7.5v-32h8.5c11.855,0,21.5-9.644,21.5-21.5v-8.5h55.179c12.308,0,22.321-10.014,22.321-22.321v-15.179    C512,400.858,508.643,397.501,504.5,397.501z M417.5,112.504h33v15h-33V112.504z M293.5,325.206v-63.704h55v63.704    c0,15.051-12.245,27.296-27.296,27.296h-0.408C305.745,352.501,293.5,340.256,293.5,325.206z M281.946,171.255    c3.456-9.248,5.085-19.077,5.721-28.114c6.01,5.321,8.333,15.661,8.333,25.273c0,16.757-6.83,34.09-18.26,34.09    c-2.317,0-4.572-0.531-6.74-1.558v-17.9C276.011,180.72,279.989,176.495,281.946,171.255z M15,168.413    c0-9.613,2.323-19.954,8.334-25.274c0.638,9.038,2.271,18.867,5.734,28.114c1.956,5.236,5.928,9.459,10.932,11.785v17.907    c-2.169,1.027-4.423,1.558-6.74,1.558C21.83,202.503,15,185.17,15,168.413z M155.501,454.41l-17.903-68.856    c1.241-0.501,2.436-1.02,3.573-1.552h0c3.895,3.209,8.889,5.141,14.329,5.141s10.434-1.931,14.329-5.141h0.001    c1.138,0.533,2.336,1.053,3.582,1.554L155.501,454.41z M119.817,372.448c0.79-2.384,1.313-3.959,1.313-5.697    c0-1.356-0.306-2.58-0.834-4.24c-0.143-0.444-0.307-0.938-0.482-1.468c-0.23-0.694-0.629-1.891-0.994-3.138    c4.165,0.854,9.798,2.489,14.599,4.558c-0.272,1.389-0.418,2.822-0.418,4.288c0,1.469,0.147,2.903,0.419,4.293    c-2.139,0.929-4.522,1.807-7.044,2.587c-2.894,0.903-5.476,1.538-7.557,1.957C119.137,374.5,119.499,373.407,119.817,372.448z     M163,366.751c0,4.075-3.364,7.391-7.5,7.391s-7.5-3.315-7.5-7.391s3.364-7.391,7.5-7.391S163,362.676,163,366.751z     M184.616,373.626c-2.518-0.779-4.9-1.656-7.036-2.582c0.272-1.39,0.419-2.824,0.419-4.292c0-1.467-0.147-2.899-0.418-4.288    c4.802-2.069,10.434-3.704,14.599-4.558c-0.365,1.247-0.764,2.443-0.994,3.138c-0.176,0.529-0.34,1.023-0.482,1.471    c-0.528,1.657-0.834,2.881-0.834,4.237c0,1.738,0.522,3.313,1.313,5.697c0.318,0.957,0.68,2.049,0.998,3.139    C190.101,375.168,187.517,374.531,184.616,373.626z M133,329.307c7.258,1.435,14.757,2.195,22.43,2.195h0.141    c7.576,0,15.083-0.774,22.43-2.231v16.996c-2.791,0.942-5.573,2.03-8.167,3.239c-3.895-3.211-8.891-5.144-14.333-5.144    s-10.438,1.933-14.333,5.144c-2.593-1.209-5.376-2.297-8.167-3.239V329.307z M22,484.071c0-39.371,20.13-75.003,50.187-91.062    L59.396,497H22V484.071z M74.509,497L88.674,381.82l0.328-2.657l14.468-3.952c-0.429,2.14-1.464,7.904,2.067,12.221    c2.015,2.463,5.021,3.819,8.464,3.819c2.33,0,5.6-0.461,9.25-1.269l23.558,90.605c1.023,3.96,4.598,6.726,8.691,6.726    s7.668-2.766,8.688-6.715l23.571-90.616c3.651,0.809,6.916,1.269,9.24,1.269c3.443,0,6.449-1.356,8.464-3.819    c3.537-4.324,2.492-10.101,2.066-12.222l14.479,3.954L236.491,497H74.509z M289,484.071V497h-37.395l-12.781-103.998    c4.525,2.42,8.877,5.308,12.991,8.611c-0.517,1.018-0.815,2.167-0.815,3.387v15.179c0,12.307,10.014,22.321,22.321,22.321h7.933    C286.391,455.552,289,469.51,289,484.071z M389.5,497h-45v-24.5h45V497z M419.5,451.001c0,3.584-2.916,6.5-6.5,6.5h-68.5v-15h75    V451.001z M497,420.18c0,4.037-3.284,7.321-7.321,7.321H273.321c-4.037,0-7.321-3.284-7.321-7.321v-7.679h231V420.18z"/>
	</g>
</g>















</svg>
