<svg height="512pt" viewBox="-39 0 512 512" width="512pt" xmlns="http://www.w3.org/2000/svg"><g fill="#bfa885"><path d="m310.433594 117.761719c5.152344-5.183594 12.53125-7.484375 19.710937-6.144531 10.070313 3.328124 5.035157 33.621093 5.035157 33.621093-4.726563 15.144531-16.492188 27.066407-31.570313 32h-173.230469c-15.085937-4.949219-26.871094-16.859375-31.65625-32 0 0-4.949218-30.292969 5.203125-33.621093 7.160157-1.34375 14.515625.960937 19.628907 6.144531zm0 0"/><path d="m303.863281 294.996094c-22.75 7.433594-46.105469 12.855468-69.800781 16.214844h-34.136719c-23.695312-3.359376-47.050781-8.78125-69.800781-16.214844 19.488281-6.175782 33.226562-23.632813 34.644531-44.03125h104.449219c1.417969 20.398437 15.15625 37.855468 34.644531 44.03125zm0 0"/><path d="m303.523438 171.09375c0 22.699219 6.65625 42.238281-19.96875 65.023438-26.625 22.785156-26.625 45.484374-53.25 45.484374h-26.621094c-26.625 0-26.625-22.785156-53.25-45.484374-26.625-22.699219-19.96875-42.324219-19.96875-65.023438s-9.984375-29.269531-6.65625-94.292969c2.816406-54.273437 61.101562-65.453125 80.386718-67.753906 3.839844-.429687 6.144532-.511719 6.144532-.511719h13.308594s83.203124 3.242188 86.53125 68.265625c3.328124 65.023438-6.65625 71.507813-6.65625 94.292969zm0 0"/></g><path d="m277.921875 171.09375c0 22.699219 6.65625 42.238281-19.96875 65.023438-26.621094 22.785156-26.621094 45.484374-53.246094 45.484374h-1.023437c-26.625 0-26.625-22.785156-53.25-45.484374-26.625-22.699219-19.96875-42.324219-19.96875-65.023438s-9.984375-29.269531-6.65625-94.292969c2.816406-54.273437 61.101562-65.453125 80.386718-67.753906 19.285157 2.300781 77.566407 13.480469 80.382813 67.753906 3.328125 65.023438-6.65625 71.507813-6.65625 94.292969zm0 0" fill="#ffe0b2"/><path d="m425.464844 416.597656c0 86.867188-208.472656 86.867188-208.472656 86.867188s-7.335938 0-19.285157-.59375h-.511719c-52.050781-2.5625-188.671874-15.960938-188.671874-86.273438 0-28.757812 5.804687-60.585937 26.453124-82.519531 15.945313-15.429687 35.566407-26.53125 57.003907-32.253906 12.398437-3.777344 25.203125-6.070313 38.144531-6.828125 0 0 0 39.679687 57.769531 96 3.074219 2.988281 6.230469 5.972656 9.644531 9.046875 5.972657 5.375 12.457032 10.921875 19.453126 16.554687 11.011718-8.875 20.710937-17.410156 29.101562-25.601562 43.605469-42.496094 54.269531-75.519532 56.917969-89.171875.476562-2.246094.761719-4.53125.851562-6.828125 31.746094 1.621094 72.875 15.359375 95.148438 39.082031 20.648437 21.933594 26.453125 53.761719 26.453125 82.519531zm0 0" fill="#283593"/><path d="m386.464844 416.597656c0 70.3125-136.703125 83.710938-188.757813 86.273438h-.511719c-52.050781-2.5625-188.671874-15.960938-188.671874-86.273438 0-28.757812 5.804687-60.585937 26.453124-82.519531 15.945313-15.429687 35.566407-26.53125 57.003907-32.253906 2.644531 13.652343 13.3125 46.675781 56.917969 89.171875 8.363281 8.191406 18.0625 16.726562 29.097656 25.601562 7.082031-5.71875 13.570312-11.265625 19.542968-16.554687 3.414063-3.15625 6.570313-6.144531 9.554688-9.046875 57.773438-56.320313 57.773438-96 57.773438-96 12.9375.757812 25.742187 3.050781 38.144531 6.828125 21.4375 5.722656 41.058593 16.824219 57 32.253906 20.652343 21.933594 26.453125 53.761719 26.453125 82.519531zm0 0" fill="#3f51b5"/><path d="m303.863281 294.996094s0 39.679687-57.769531 96l-20.566406-41.128906h-8.535156c-2.828126-.011719-5.609376-.714844-8.105469-2.046876l-.425781 2.046876-20.566407 41.128906c-57.769531-56.320313-57.769531-96-57.769531-96 22.75 7.433594 46.105469 12.855468 69.800781 16.214844h34.136719c23.695312-3.359376 47.050781-8.78125 69.800781-16.214844zm0 0" fill="#f5f5f5"/><path d="m246.09375 390.996094c-8.363281 8.191406-18.0625 16.726562-29.101562 25.601562-11.007813-8.875-20.707032-17.410156-29.097657-25.601562l20.566407-41.128906.425781-2.046876c2.496093 1.332032 5.277343 2.035157 8.105469 2.046876v-17.066407zm0 0" fill="#f44335"/><path d="m234.0625 311.210938v21.589843c-.03125 9.414063-7.65625 17.039063-17.070312 17.066407-9.421876 0-17.066407-7.640626-17.066407-17.066407v-21.589843c.136719-2.257813 2.007813-4.015626 4.269531-4.011719h25.597657c2.261719-.003907 4.132812 1.753906 4.269531 4.011719zm0 0" fill="#f44335"/><path d="m174.78125 112.1875c4.710938 0 8.53125-3.820312 8.53125-8.53125.019531-18.59375 15.089844-33.664062 33.679688-33.683594 16.179687 0 30.070312 11.5 33.097656 27.390625 3.023437 15.894531-5.675782 31.691407-20.722656 37.632813-12.667969 5.191406-20.929688 17.535156-20.90625 31.226562v13.429688c0 4.710937 3.820312 8.535156 8.53125 8.535156 4.714843 0 8.535156-3.824219 8.535156-8.535156v-13.429688c-.054688-6.703125 3.945312-12.773437 10.128906-15.363281 22.484375-9.09375 35.410156-32.808594 30.871094-56.636719-4.539063-23.824218-25.28125-41.125-49.535156-41.316406-28.011719.027344-50.71875 22.734375-50.746094 50.75 0 2.261719.898437 4.433594 2.5 6.03125 1.601562 1.601562 3.769531 2.5 6.035156 2.5zm0 0"/><path d="m216.992188 204.980469c-3.414063 0-6.496094 2.058593-7.804688 5.214843-1.304688 3.160157-.582031 6.792969 1.835938 9.207032 2.417968 2.417968 6.054687 3.136718 9.210937 1.828125 3.15625-1.3125 5.210937-4.394531 5.207031-7.8125-.003906-4.660157-3.785156-8.4375-8.449218-8.4375zm0 0"/><path d="m128.164062 286.625c-32.105468 1.9375-74.832031 15.359375-99.433593 41.585938-19.097657 20.300781-28.730469 50.046874-28.730469 88.394531.0078125 94.3125 208.136719 95.394531 216.992188 95.394531 8.859374 0 216.988281-1.082031 216.996093-95.394531 0-38.347657-9.667969-68.09375-28.730469-88.394531-24.601562-26.191407-67.328124-39.648438-99.433593-41.585938-14.875-4.757812-25.605469-17.765625-27.449219-33.277344 3.289062-3.871094 6.875-7.476562 10.726562-10.789062 24.992188-21.332032 24.269532-41.8125 23.355469-59.929688 15.207031-6.789062 26.617188-19.980468 31.136719-36.007812 1.878906-11.273438 4.582031-38.050782-10.726562-43.113282-4.363282-1.425781-9.054688-1.515624-13.472657-.253906.050781-7.757812-.136719-16.605468-.664062-26.898437-2.972657-57.582031-63.277344-75.117188-95.082031-76.355469h-13.652344c-31.46875 1.230469-91.773438 18.773438-94.71875 76.355469-.519532 10.300781-.683594 19.148437-.683594 26.898437-4.375-1.253906-9.027344-1.167968-13.355469.246094-15.425781 5.0625-12.796875 31.832031-10.878906 43.519531 4.667969 15.859375 16.050781 28.878907 31.148437 35.621094-.914062 18.105469-1.640624 38.570313 23.355469 59.929687 3.847657 3.308594 7.433594 6.917969 10.726563 10.785157-1.84375 15.5-12.5625 28.503906-27.425782 33.269531zm164.597657 20.703125c-4.15625 13.859375-15.207031 38.398437-44.375 69.121094l-12.976563-25.949219c4.597656-4.746094 7.175782-11.09375 7.183594-17.699219v-14.132812c16.949219-2.707031 33.703125-6.492188 50.167969-11.339844zm-75.769531 98.160156c-6.757813-5.59375-12.964844-11.050781-18.617188-16.375l15.523438-31.027343c2.042968.417968 4.148437.417968 6.191406 0l15.523437 31.035156c-5.636719 5.3125-11.84375 10.769531-18.621093 16.367187zm8.535156-72.6875c0 4.710938-3.820313 8.53125-8.535156 8.53125-4.710938 0-8.53125-3.820312-8.53125-8.53125v-17.066406h17.066406zm-26.929688 17.722657-12.980468 25.949218c-29.203126-30.71875-40.25-55.320312-44.375-69.117187 16.460937 4.832031 33.210937 8.613281 50.152343 11.3125v14.132812c.007813 6.617188 2.589844 12.976563 7.203125 17.722657zm218.324219 66.082031c-.007813 64.207031-144.324219 78.328125-199.929687 78.328125-55.601563 0-199.917969-14.121094-199.925782-78.328125 0-33.867188 8.117188-59.683594 24.105469-76.714844 19.628906-20.933594 54.453125-32.726563 81.589844-35.726563 3.148437 15.554688 15 49.558594 58.605469 92.3125.058593.074219.136718.128907.195312.195313 9.582031 9.359375 19.628906 18.230469 30.097656 26.582031.21875.125.445313.238282.675782.339844.484374.320312 1.003906.589844 1.542968.804688.480469.203124.980469.355468 1.492188.460937.539062.097656 1.085937.144531 1.632812.132813 1.648438-.011719 3.261719-.492188 4.648438-1.390626.214844-.144531.460937-.1875.675781-.347656 10.46875-8.359375 20.515625-17.234375 30.097656-26.597656.058594-.070312.136719-.121094.195313-.199219 43.605468-42.75 55.464844-76.796875 58.605468-92.3125 27.136719 3.003907 61.917969 14.796875 81.589844 35.730469 15.988282 17.046875 24.105469 42.863281 24.105469 76.730469zm-90.292969-297.085938c1.71875 7.863281 1.796875 15.996094.222656 23.890625-2.515624 7.773438-7.511718 14.507813-14.214843 19.175782.453125-3.464844 1.101562-6.828126 1.867187-10.660157 2.097656-9.785156 3.5-19.710937 4.199219-29.695312 2.269531-1.757813 5.058594-2.714844 7.925781-2.710938zm-219.484375 24.34375c-1.640625-8.042969-1.554687-16.339843.246094-24.34375 2.859375-.046875 5.644531.890625 7.894531 2.652344.695313 9.996094 2.101563 19.929687 4.199219 29.730469.765625 3.8125 1.425781 7.203125 1.867187 10.667968-6.59375-4.578124-11.566406-11.125-14.207031-18.707031zm31.460938 38.964844c.085937-1.648437.105469-3.355469.171875-5.027344.03125-.410156.03125-.820312 0-1.230469.070312-1.832031.1875-3.625.1875-5.492187-.109375-7.597656-1.046875-15.15625-2.789063-22.546875-2.214843-10.273438-3.601562-20.710938-4.148437-31.207031v-.09375c-.609375-13.328125-.519532-26.675781.265625-39.996094 2.925781-56.378906 75.316406-60.046875 78.046875-60.167969h12.960937c3.089844.128906 75.46875 3.796875 78.359375 60.175782.785156 13.320312.875 26.667968.265625 39.996093v.09375c-.546875 10.496094-1.933593 20.933594-4.148437 31.207031-1.742188 7.390626-2.675782 14.953126-2.789063 22.546876 0 1.867187.121094 3.660156.1875 5.496093-.027343.40625-.027343.816407 0 1.226563.070313 1.707031.085938 3.414062.171875 5.027344.902344 17.765624 1.550782 30.601562-17.375 46.769531-5.648437 4.867187-10.820312 10.261719-15.453125 16.101562l-.238281.300781c-2.800781 3.5-5.308594 6.828126-7.492188 9.898438-8.78125 12.203125-12.851562 17.160156-24.484374 17.160156h-26.621094c-11.632813 0-15.675782-4.957031-24.519532-17.167968-2.183593-3.03125-4.691406-6.402344-7.492187-9.898438l-.238281-.300781c-4.632813-5.839844-9.804688-11.234375-15.453125-16.101563-18.925781-16.171875-18.277344-29.003906-17.375-46.769531zm29.75 87.148437c7.289062 12.585938 20.78125 20.285157 35.328125 20.15625h26.621094c14.546874.128907 28.039062-7.570312 35.328124-20.15625 3.308594 8.792969 8.785157 16.609376 15.925782 22.714844l-.453125.128906c-3.054688.855469-6.359375 1.707032-9.832031 2.5625l-1.023438.253907c-3.515625.855469-7.203125 1.707031-10.972656 2.5625l-1.074219.238281c-3.882813.851562-7.84375 1.601562-11.8125 2.304688l-.765625.132812c-2.460938.429688-4.882812.726562-7.324219 1.078125-2.332031-2.128906-5.375-3.308594-8.53125-3.3125h-25.601562c-3.15625.003906-6.199219 1.183594-8.53125 3.3125-14.59375-2.210937-29.042969-5.296875-43.265625-9.242187 7.164062-6.105469 12.664062-13.925782 15.984375-22.734376zm0 0"/></svg>