<svg height="512pt" viewBox="-7 0 511 512" width="512pt" xmlns="http://www.w3.org/2000/svg"><path d="m90.085938 26.054688h125.144531v416.648437h-125.144531zm0 0" fill="#235872"/><g fill="#4c78a0"><path d="m208.105469 7.5h23.023437c5.695313 0 10.3125 4.617188 10.3125 10.3125v433.128906c0 5.695313-4.617187 10.3125-10.3125 10.3125h-23.023437c-5.699219 0-10.3125-4.617187-10.3125-10.3125v-433.128906c0-5.695312 4.613281-10.3125 10.3125-10.3125zm0 0"/><path d="m137.238281 7.5h23.023438c5.695312 0 10.3125 4.617188 10.3125 10.3125v433.128906c0 5.695313-4.617188 10.3125-10.3125 10.3125h-23.023438c-5.695312 0-10.3125-4.617187-10.3125-10.3125v-433.128906c0-5.695312 4.617188-10.3125 10.3125-10.3125zm0 0"/><path d="m53.996094 7.5h35.398437c5.699219 0 10.316407 4.617188 10.316407 10.3125v433.128906c0 5.695313-4.617188 10.3125-10.316407 10.3125h-35.398437c-5.695313 0-10.3125-4.617187-10.3125-10.3125v-433.128906c0-5.695312 4.617187-10.3125 10.3125-10.3125zm0 0"/></g><path d="m267.113281 478.800781h-249.109375c-6.460937 0-11.21875-6.03125-9.730468-12.320312l9.730468-40.859375c1.070313-4.5 5.101563-7.679688 9.730469-7.679688h229.648437c4.640626 0 8.660157 3.179688 9.730469 7.679688l9.730469 40.859375c1.5 6.289062-3.269531 12.320312-9.730469 12.320312zm0 0" fill="#abe0da"/><path d="m267.113281 478.800781h-35.410156c.160156-3.25.769531-6.5 1.839844-9.699219l17.082031-51.160156h6.757812c4.640626 0 8.660157 3.179688 9.730469 7.679688l9.730469 40.859375c1.5 6.289062-3.269531 12.320312-9.730469 12.320312zm0 0" fill="#9ac6c3"/><path d="m467.140625 504.5c16.386719 0 27.957031-16.058594 22.769531-31.605469l-33.148437-99.316406c-2.507813-7.503906-9.53125-12.566406-17.445313-12.566406h-143.796875c-7.910156 0-14.9375 5.0625-17.441406 12.566406l-33.148437 99.316406c-5.191407 15.546875 6.378906 31.605469 22.769531 31.605469 9.957031 0 18.878906-6.144531 22.429687-15.449219l7.625-19.984375c4.808594-12.605468 16.902344-20.9375 30.398438-20.9375h78.53125c13.496094 0 25.589844 8.332032 30.402344 20.9375l7.625 19.988282c3.550781 9.300781 12.472656 15.445312 22.429687 15.445312zm0 0" fill="#235872"/><path d="m353.109375 448.214844c0 9.699218-7.859375 17.5625-17.558594 17.5625s-17.5625-7.863282-17.5625-17.5625c0-9.699219 7.863281-17.5625 17.5625-17.5625s17.558594 7.863281 17.558594 17.5625zm0 0" fill="#4c78a0"/><path d="m413.75 448.214844c0 9.699218-7.863281 17.5625-17.5625 17.5625s-17.558594-7.863282-17.558594-17.5625c0-9.699219 7.859375-17.5625 17.558594-17.5625s17.5625 7.863281 17.5625 17.5625zm0 0" fill="#4c78a0"/><path d="m43.683594 193.410156c4.144531 0 7.5-3.355468 7.5-7.5v-51.820312c0-4.144532-3.355469-7.5-7.5-7.5-4.140625 0-7.5 3.355468-7.5 7.5v51.820312c0 4.144532 3.359375 7.5 7.5 7.5zm0 0"/><path d="m71.6875 53.148438h.066406c4.109375 0 7.460938-3.316407 7.5-7.433594.035156-4.144532-3.292968-7.53125-7.4375-7.566406h-.109375c-.023437 0-.046875 0-.066406 0-4.113281 0-7.464844 3.3125-7.5 7.433593-.035156 4.144531 3.292969 7.527344 7.433594 7.566407zm0 0"/><path d="m71.574219 75.480469h.113281.066406c4.109375 0 7.460938-3.316407 7.5-7.433594.035156-4.144531-3.292968-7.53125-7.4375-7.566406h-.109375c-.023437 0-.046875 0-.066406 0-4.113281 0-7.464844 3.316406-7.5 7.433593-.035156 4.144532 3.292969 7.53125 7.433594 7.566407zm0 0"/><path d="m497.023438 470.519531-10.632813-31.863281c-1.3125-3.925781-5.558594-6.046875-9.492187-4.738281-3.925782 1.3125-6.050782 5.5625-4.738282 9.488281l10.636719 31.863281c1.699219 5.09375.875 10.515625-2.265625 14.871094-3.140625 4.359375-8.019531 6.859375-13.390625 6.859375-6.800781 0-13-4.269531-15.421875-10.621094l-7.625-19.984375c-4.109375-10.773437-12.675781-19.195312-23.347656-23.203125-2.332032-11.421875-12.457032-20.042968-24.558594-20.042968-11.175781 0-20.664062 7.355468-23.882812 17.480468h-12.871094c-3.21875-10.125-12.707032-17.480468-23.882813-17.480468-12.597656 0-23.046875 9.34375-24.800781 21.460937-9.164062 4.417969-16.335938 12.171875-20.003906 21.785156l-7.625 19.984375c-2.425782 6.351563-8.621094 10.621094-15.421875 10.621094-5.371094 0-10.25-2.5-13.390625-6.855469-3.140625-4.359375-3.964844-9.78125-2.265625-14.875l33.148437-99.316406c1.484375-4.449219 5.636719-7.441406 10.328125-7.441406h143.796875c4.691406 0 8.84375 2.992187 10.328125 7.441406l11.679688 34.992187c1.3125 3.929688 5.5625 6.054688 9.488281 4.742188 3.929688-1.3125 6.050781-5.558594 4.742188-9.488281l-11.679688-34.992188c-3.53125-10.585937-13.402344-17.695312-24.558594-17.695312h-143.796875c-11.15625 0-21.023437 7.109375-24.554687 17.695312l-13.09375 39.234375h-8.929688v-392.628906c0-9.820312-7.992187-17.8125-17.816406-17.8125h-23.019531c-9.824219 0-17.8125 7.992188-17.8125 17.8125v.738281h-12.21875v-.738281c0-9.820312-7.992188-17.8125-17.8125-17.8125h-23.023438c-9.820312 0-17.8125 7.992188-17.8125 17.8125v.738281h-12.214843v-.738281c-.003907-9.820312-7.992188-17.8125-17.816407-17.8125h-35.398437c-9.820313 0-17.8125 7.992188-17.8125 17.8125v82.097656c0 4.144532 3.355468 7.5 7.5 7.5 4.140625 0 7.5-3.355468 7.5-7.5v-82.097656c0-1.550781 1.261718-2.8125 2.8125-2.8125h35.398437c1.550781 0 2.8125 1.261719 2.8125 2.8125v392.625h-41.023437v-190.347656c0-4.144532-3.355469-7.5-7.5-7.5-4.140625 0-7.5 3.355468-7.5 7.5v190.351562h-8.449219c-8.140625 0-15.140625 5.527344-17.023437 13.445313l-9.726563 40.855469c-1.25 5.242187-.050781 10.671874 3.289063 14.902343 3.339843 4.226563 8.34375 6.652344 13.734374 6.652344h218.699219c.835938 4.464844 2.652344 8.757813 5.429688 12.613281 5.992187 8.316406 15.3125 13.089844 25.5625 13.089844 12.980469 0 24.808593-8.148438 29.4375-20.273438l7.625-19.984374c1.777343-4.65625 4.871093-8.613282 8.839843-11.445313 4.269532 7.730469 12.507813 12.980469 21.949219 12.980469 11.238281 0 20.769531-7.4375 23.941407-17.648438h12.753906c3.171875 10.210938 12.703125 17.648438 23.941406 17.648438 10.03125 0 18.703125-5.925782 22.703125-14.460938 5.070313 2.835938 9.074219 7.382813 11.191406 12.925782l7.625 19.984374c4.625 12.125 16.453125 20.273438 29.433594 20.273438 10.25 0 19.566406-4.769531 25.558594-13.089844 5.996093-8.316406 7.570312-18.664062 4.324219-28.390625zm-288.917969-455.519531h23.019531c1.554688 0 2.8125 1.261719 2.8125 2.8125v392.625h-28.648438v-392.625c0-1.550781 1.261719-2.8125 2.816407-2.8125zm-17.816407 18.554688v376.886718h-12.214843v-376.886718zm-53.050781-18.554688h23.023438c1.550781 0 2.8125 1.261719 2.8125 2.8125v392.625h-28.648438v-392.625c0-1.550781 1.261719-2.8125 2.8125-2.8125zm-30.03125 18.554688h12.21875v376.886718h-12.21875zm-91.164062 436.792968c-.277344-.355468-.710938-1.105468-.46875-2.128906l9.726562-40.859375c.269531-1.128906 1.269531-1.917969 2.433594-1.917969h225.128906l-6.597656 19.761719c-1.304687-1.097656-2.988281-1.761719-4.824219-1.761719h-26.210937c-4.144531 0-7.5 3.359375-7.5 7.5 0 4.144532 3.355469 7.5 7.5 7.5h26.210937c.140625 0 .273438-.011718.414063-.019531l-4.039063 12.097656c-.085937.257813-.15625.519531-.234375.777344h-219.574219c-1.054687 0-1.683593-.59375-1.964843-.949219zm319.503906-12.070312c-5.546875 0-10.0625-4.515625-10.0625-10.0625 0-5.550782 4.515625-10.066406 10.0625-10.066406 5.550781 0 10.0625 4.515624 10.0625 10.066406 0 5.546875-4.511719 10.0625-10.0625 10.0625zm60.640625 0c-5.546875 0-10.0625-4.515625-10.0625-10.0625 0-5.550782 4.515625-10.066406 10.0625-10.066406 5.550781 0 10.066406 4.515624 10.066406 10.066406 0 5.546875-4.515625 10.0625-10.066406 10.0625zm0 0"/><path d="m313.367188 394.738281h.121093.0625c4.113281 0 7.464844-3.320312 7.5-7.441406.03125-4.140625-3.300781-7.523437-7.441406-7.558594h-.125c-.019531 0-.039063 0-.058594 0-4.113281 0-7.464843 3.316407-7.5 7.4375-.03125 4.144531 3.296875 7.527344 7.441407 7.5625zm0 0"/><path d="m313.367188 421.734375.121093.003906h.0625c4.113281 0 7.464844-3.320312 7.5-7.441406.03125-4.140625-3.300781-7.527344-7.441406-7.558594l-.125-.003906c-.019531 0-.039063 0-.058594 0-4.113281 0-7.464843 3.320313-7.5 7.441406-.03125 4.140625 3.296875 7.527344 7.441407 7.558594zm0 0"/><path d="m326.925781 408.300781h.0625c4.113281 0 7.464844-3.320312 7.496094-7.441406l.003906-.125c.03125-4.140625-3.300781-7.523437-7.441406-7.558594-.019531 0-.039063 0-.0625 0-4.113281 0-7.464844 3.320313-7.496094 7.441407l-.003906.121093c-.03125 4.144531 3.300781 7.527344 7.441406 7.5625zm0 0"/><path d="m300.046875 393.175781c-.023437 0-.039063 0-.0625 0-4.113281 0-7.464844 3.320313-7.5 7.441407v.121093c-.03125 4.144531 3.300781 7.527344 7.441406 7.5625h.058594c4.117187 0 7.46875-3.320312 7.5-7.441406v-.125c.035156-4.140625-3.296875-7.523437-7.4375-7.558594zm0 0"/><path d="m424.859375 394.738281h.125.058594c4.113281 0 7.46875-3.320312 7.5-7.441406.03125-4.140625-3.296875-7.523437-7.441407-7.558594h-.121093c-.019531 0-.039063 0-.0625 0-4.113281 0-7.464844 3.316407-7.496094 7.4375-.035156 4.144531 3.296875 7.527344 7.4375 7.5625zm0 0"/><path d="m424.859375 421.734375.125.003906h.058594c4.113281 0 7.46875-3.320312 7.5-7.441406.03125-4.140625-3.296875-7.527344-7.441407-7.558594l-.121093-.003906c-.019531 0-.039063 0-.0625 0-4.113281 0-7.464844 3.320313-7.496094 7.441406-.035156 4.140625 3.296875 7.527344 7.4375 7.558594zm0 0"/><path d="m438.421875 408.300781h.058594c4.113281 0 7.464843-3.320312 7.5-7.441406v-.125c.03125-4.140625-3.296875-7.523437-7.4375-7.558594-.023438 0-.042969 0-.0625 0-4.113281 0-7.464844 3.320313-7.5 7.441407v.121093c-.03125 4.144531 3.296875 7.527344 7.441406 7.5625zm0 0"/><path d="m411.542969 393.175781c-.023438 0-.042969 0-.0625 0-4.113281 0-7.464844 3.320313-7.5 7.441407v.121093c-.03125 4.144531 3.296875 7.527344 7.441406 7.5625h.058594c4.113281 0 7.464843-3.320312 7.5-7.441406v-.125c.035156-4.140625-3.296875-7.523437-7.4375-7.558594zm0 0"/><path d="m356.886719 381.585938c-4.144531 0-7.5 3.355468-7.5 7.5 0 4.144531 3.355469 7.5 7.5 7.5h21.738281c4.144531 0 7.5-3.355469 7.5-7.5 0-4.144532-3.355469-7.5-7.5-7.5zm0 0"/><path d="m303.753906 349.621094h20.253906c4.140626 0 7.5-3.355469 7.5-7.5 0-4.144532-3.359374-7.5-7.5-7.5h-20.253906c-4.144531 0-7.5 3.355468-7.5 7.5 0 4.144531 3.355469 7.5 7.5 7.5zm0 0"/><path d="m414.914062 349.621094h20.253907c4.144531 0 7.5-3.355469 7.5-7.5 0-4.144532-3.355469-7.5-7.5-7.5h-20.253907c-4.140624 0-7.5 3.355468-7.5 7.5 0 4.144531 3.359376 7.5 7.5 7.5zm0 0"/><path d="m367.664062 315.113281h.054688c4.117188 0 7.46875-3.320312 7.5-7.441406l.085938-11.1875c.03125-4.144531-3.304688-7.527344-7.445313-7.558594-.019531 0-.039063 0-.058594 0-4.113281 0-7.464843 3.320313-7.496093 7.441407l-.085938 11.191406c-.03125 4.140625 3.300781 7.527344 7.445312 7.554687zm0 0"/><path d="m334.394531 315.960938c1.378907 2.433593 3.917969 3.796874 6.527344 3.796874 1.253906 0 2.527344-.3125 3.695313-.976562 3.601562-2.042969 4.867187-6.621094 2.820312-10.226562l-5.519531-9.730469c-2.042969-3.601563-6.621094-4.867188-10.226563-2.820313-3.601562 2.042969-4.863281 6.617188-2.820312 10.222656zm0 0"/><path d="m390.652344 319.128906c1.191406.699219 2.5 1.035156 3.789062 1.035156 2.574219 0 5.078125-1.324218 6.476563-3.703124l5.667969-9.648438c2.097656-3.570312.902343-8.167969-2.667969-10.265625-3.570313-2.097656-8.167969-.902344-10.269531 2.667969l-5.664063 9.648437c-2.097656 3.574219-.90625 8.167969 2.667969 10.265625zm0 0"/></svg>