<svg height="512pt" viewBox="0 0 512 512.23127" width="512pt" xmlns="http://www.w3.org/2000/svg"><path d="m408.773438 232.269531c73.730468-69.117187 53.675781-159.058593 33.453124-209.320312-2.375-7.851563-9.234374-13.5-17.394531-14.324219-8.160156-.820312-16.007812 3.347656-19.898437 10.570312-15.871094 26.195313-41.214844 59.902344-73.128906 74.238282h-154.453126c-31.917968-14.335938-57.261718-48.042969-73.132812-74.238282-3.886719-7.222656-11.738281-11.390624-19.898438-10.570312-8.15625.824219-15.019531 6.472656-17.390624 14.324219-20.226563 50.261719-40.277344 140.203125 33.449218 209.320312zm0 0" fill="#795548"/><path d="m408.773438 232.269531h-22.527344c73.726562-69.117187 53.675781-159.058593 33.449218-209.320312-1.6875-4.292969-4.558593-8.023438-8.277343-10.753907 5.3125-3.644531 12.042969-4.542968 18.125-2.421874 6.082031 2.125 10.792969 7.015624 12.683593 13.175781 20.222657 50.261719 40.277344 140.203125-33.453124 209.320312zm0 0" fill="#4e342e"/><path d="m396.484375 195.75c31.445313-36.890625 34.484375-79.761719 26.832031-118.078125-.617187-3.273437-3.058594-5.898437-6.277344-6.75-3.21875-.855469-6.640624.21875-8.792968 2.757813-14.839844 18.84375-33.175782 34.648437-54 46.546874h-199.339844c-20.824219-11.898437-39.164062-27.703124-54.007812-46.546874-2.15625-2.535157-5.574219-3.601563-8.789063-2.75-3.214844.851562-5.652344 3.476562-6.269531 6.742187-7.679688 38.316406-4.617188 81.1875 26.828125 118.078125zm0 0" fill="#e91e63"/><path d="m254.578125 503.460938c126.574219-8.535157 128-85.335938 128-85.335938 25.597656 25.601562 59.730469 0 59.730469 0-25.597656 0-24.0625-42.664062-24.0625-42.664062 34.132812 8.53125 41.128906-25.601563 41.128906-25.601563-42.664062 0-42.664062-68.265625-42.664062-68.265625 0-32.863281-20.25-121.414062-88.046876-191.566406-19.394531-20.117188-46.140624-31.484375-74.085937-31.484375-27.949219 0-54.691406 11.367187-74.085937 31.484375-67.800782 70.152344-88.050782 158.703125-88.050782 191.566406 0 0 0 68.265625-42.664062 68.265625 0 0 10.070312 34.132813 44.203125 25.601563 0 0-1.539063 42.664062-27.136719 42.664062 0 0 34.132812 25.601562 59.734375 0 0 0 1.414063 76.800781 128 85.335938zm0 0" fill="#ffecb3"/><path d="m459.375 349.859375s-6.996094 34.132813-41.128906 25.601563l-.769532-1.453126c9.074219-5.1875 15.546876-13.953124 17.835938-24.148437-42.667969 0-42.667969-68.265625-42.667969-68.265625 0-32.855469-20.222656-121.429688-88.0625-191.574219-16.472656-17.148437-38.414062-28.015625-62.039062-30.71875 31.933593-3.851562 63.820312 7.527344 86.101562 30.71875 67.839844 70.144531 88.066407 158.71875 88.066407 191.574219 0 0 0 68.265625 42.664062 68.265625zm0 0" fill="#bfa885"/><path d="m83.996094 324.261719c5.332031-13.609375 8.191406-28.058594 8.445312-42.667969 0-32.855469 20.226563-121.429688 88.066406-191.574219 13.3125-13.851562 30.257813-23.667969 48.894532-28.332031 9.730468 50.945312 40.789062 270.082031-145.40625 262.574219zm0 0" fill="#f57c00"/><path d="m425.15625 324.261719c-8.050781.375-16.117188.234375-24.148438-.429688-151.125-11.09375-132.949218-193.449219-122.792968-253.523437.511718-3.242188 1.109375-6.144532 1.535156-8.621094 18.636719 4.664062 35.582031 14.480469 48.894531 28.332031 67.839844 70.144531 88.066407 158.71875 88.066407 191.574219.253906 14.609375 3.113281 29.058594 8.445312 42.667969zm0 0" fill="#d84315"/><path d="m401.007812 323.832031c-151.125-11.09375-132.949218-193.449219-122.792968-253.523437 9.863281 5.039062 18.804687 11.703125 26.453125 19.710937 67.839843 70.144531 88.0625 158.71875 88.0625 191.574219.257812 14.457031 3.058593 28.753906 8.277343 42.238281zm0 0" fill="#f57c00"/><path d="m25.796875 426.660156 25.515625 8.535156c-9.210938.019532-18.171875-2.976562-25.515625-8.535156zm0 0" fill="#fdd7ad"/><path d="m486.511719 426.660156c14.222656-10.636718 20.371093-28.96875 15.433593-46.03125-4.9375-17.058594-19.925781-29.277344-37.628906-30.671875-17.707031-1.398437-34.421875 8.320313-41.972656 24.394531l-4.097656 18.175782c-.007813-6.253906 1.363281-12.429688 4.011718-18.089844-11.261718 11.808594-26.417968 19.144531-42.667968 20.648438h-.085938c-1.496094.234374-3.007812.378906-4.523437.425781h-237.738281c-1.515626-.046875-3.023438-.191407-4.523438-.425781h-.082031c-16.25-1.503907-31.40625-8.839844-42.667969-20.648438-7.535156-16.078125-24.234375-25.808594-41.9375-24.433594-17.699219 1.375-32.699219 13.566406-37.660156 30.613282-4.964844 17.042968 1.144531 35.382812 15.339844 46.042968-16.050782 12.039063-21.542969 33.632813-13.199219 51.882813 8.347656 18.246093 28.277343 28.210937 47.882812 23.9375 19.605469-4.269531 33.585938-21.621094 33.585938-41.6875h324.265625c0 20.066406 13.980468 37.417969 33.585937 41.6875 19.601563 4.273437 39.535157-5.691407 47.882813-23.9375 8.34375-18.25 2.847656-39.84375-13.203125-51.882813zm-460.714844 0 25.515625 8.535156c-9.210938.019532-18.171875-2.976562-25.515625-8.535156zm64.171875-52.140625c2.640625 5.636719 4.007812 11.785157 4.011719 18.007813zm0 0" fill="#cfd8dc"/><path d="m503.578125 460.792969c0 23.566406-19.101563 42.667969-42.664063 42.667969-4.335937-.015626-8.644531-.644532-12.800781-1.878907 15.269531-4.820312 26.5625-17.773437 29.257813-33.554687 2.699218-15.785156-3.65625-31.75-16.457032-41.367188 12.804688-9.585937 19.167969-25.53125 16.488282-41.300781-2.675782-15.769531-13.953125-28.714844-29.203125-33.535156 4.109375-1.308594 8.398437-1.972657 12.714843-1.964844 18.363282 0 34.667969 11.753906 40.476563 29.175781s-.1875 36.605469-14.878906 47.625c10.734375 8.066406 17.054687 20.707032 17.066406 34.132813zm0 0" fill="#607d8b"/><path d="m297.242188 335.636719c-3.308594 21.539062-20.949219 38.003906-42.664063 39.824219-21.71875-1.820313-39.359375-18.285157-42.667969-39.824219.007813-1.730469.296875-3.445313.851563-5.078125 4.011719-10.753906 21.164062-14.832032 41.816406-14.832032 23.550781 0 42.664063 5.273438 42.664063 19.910157zm0 0" fill="#37474f"/><path d="m203.375 409.59375c-1.117188-.011719-2.222656-.246094-3.25-.683594-1.03125-.433594-1.980469-1.039062-2.808594-1.792968-.753906-.828126-1.359375-1.78125-1.800781-2.8125-.898437-2.070313-.898437-4.417969 0-6.488282.417969-1.042968 1.027344-2 1.800781-2.816406 1.996094-2.066406 4.910156-2.976562 7.730469-2.40625 2.816406.570312 5.148437 2.539062 6.179687 5.222656.910157 2.066406.910157 4.421875 0 6.488282-.4375 1.027343-1.042968 1.980468-1.792968 2.8125-1.605469 1.605468-3.789063 2.496093-6.058594 2.476562zm0 0" fill="#cb8252"/><path d="m305.777344 409.59375c1.113281-.015625 2.214844-.246094 3.242187-.683594 1.035157-.433594 1.984375-1.039062 2.816407-1.792968.75-.828126 1.355468-1.78125 1.792968-2.8125.910156-2.066407.910156-4.421876 0-6.488282-.414062-1.042968-1.023437-2-1.792968-2.816406-3.421876-3.15625-8.695313-3.15625-12.117188 0-.773438.816406-1.378906 1.773438-1.792969 2.816406-.910156 2.066406-.910156 4.421875 0 6.488282.433594 1.03125 1.039063 1.984374 1.792969 2.8125 1.605469 1.605468 3.789062 2.496093 6.058594 2.476562zm0 0" fill="#cb8252"/><path d="m187.847656 238.925781c0 9.425781-7.644531 17.066407-17.066406 17.066407-9.425781 0-17.070312-7.640626-17.070312-17.066407s7.644531-17.066406 17.070312-17.066406c9.421875 0 17.066406 7.640625 17.066406 17.066406zm0 0" fill="#37474f"/><path d="m358.511719 238.925781c0 9.425781-7.640625 17.066407-17.066407 17.066407-9.425781 0-17.066406-7.640626-17.066406-17.066407s7.640625-17.066406 17.066406-17.066406c9.425782 0 17.066407 7.640625 17.066407 17.066406zm0 0" fill="#37474f"/><path d="m358.511719 383.992188c-.480469 2.882812-1.136719 5.730468-1.960938 8.535156-1.855469 6.726562-4.582031 13.179687-8.109375 19.199218-10.035156 15.667969-27.660156 24.804688-46.25 23.980469-2.59375.027344-5.1875-.113281-7.765625-.429687-12.796875-.945313-24.402343-7.871094-31.316406-18.6875-3.777344-7.496094-5.984375-15.683594-6.484375-24.0625-.511719-5.71875-.511719-11.433594-.511719-17.066406 0 5.632812 0 11.347656-.511719 17.066406-.5 8.378906-2.707031 16.566406-6.484374 24.0625-6.914063 10.816406-18.519532 17.742187-31.320313 18.6875-21.074219 3.503906-42.238281-5.722656-54.015625-23.550782-3.523438-6.019531-6.25-12.472656-8.105469-19.199218-.824219-2.804688-1.480469-5.652344-1.964843-8.535156zm0 0" fill="#ffecb3"/><path d="m145.179688 238.925781c0 14.140625 11.460937 25.601563 25.601562 25.601563 14.136719 0 25.597656-11.460938 25.597656-25.601563 0-14.136719-11.460937-25.597656-25.597656-25.597656-14.140625 0-25.601562 11.460937-25.601562 25.597656zm34.132812 0c0 4.714844-3.820312 8.535157-8.53125 8.535157-4.714844 0-8.535156-3.820313-8.535156-8.535157 0-4.710937 3.820312-8.53125 8.535156-8.53125 4.710938 0 8.53125 3.820313 8.53125 8.53125zm0 0"/><path d="m341.445312 264.527344c14.140626 0 25.601563-11.460938 25.601563-25.601563 0-14.136719-11.460937-25.597656-25.601563-25.597656-14.136718 0-25.597656 11.460937-25.597656 25.597656 0 14.140625 11.460938 25.601563 25.597656 25.601563zm0-34.132813c4.714844 0 8.535157 3.820313 8.535157 8.53125 0 4.714844-3.820313 8.535157-8.535157 8.535157-4.710937 0-8.53125-3.820313-8.53125-8.535157 0-4.710937 3.820313-8.53125 8.53125-8.53125zm0 0"/><path d="m460.914062 341.328125c-11.667968 0-20.277343-6.699219-26.316406-20.480469-.140625-.324218-.304687-.636718-.488281-.941406-4.585937-12.265625-7.066406-25.21875-7.328125-38.3125-.53125-15.777344-2.875-31.441406-6.980469-46.6875 73.597657-72.660156 51.777344-165.664062 31.871094-215.148438-3.9375-10.902343-13.792969-18.566406-25.328125-19.695312-11.132812-.726562-21.695312 4.996094-27.167969 14.71875-14.210937 23.433594-36.585937 53.375-64.121093 68.089844-13.9375-14.023438-31.359376-24.074219-50.476563-29.117188-.398437-.167968-.8125-.304687-1.234375-.410156-17.886719-4.417969-36.578125-4.417969-54.460938 0-.417968.105469-.824218.242188-1.21875.410156-19.128906 5.03125-36.5625 15.089844-50.492187 29.132813-27.539063-14.730469-49.914063-44.671875-64.121094-68.097657-5.476562-9.71875-16.035156-15.441406-27.167969-14.726562-11.542968 1.132812-21.402343 8.804688-25.335937 19.710938-19.910156 49.492187-41.71875 142.507812 31.878906 215.132812-4.109375 15.242188-6.449219 30.910156-6.980469 46.6875-.246093 13.085938-2.722656 26.035156-7.320312 38.289062-.1875.308594-.351562.625-.496094.957032-6.042968 13.789062-14.652344 20.488281-26.316406 20.488281-20.207031-.035156-38.539062 11.839844-46.769531 30.296875-8.226563 18.457031-4.804688 40.027344 8.726562 55.035156-14.539062 16.1875-17.246093 39.800782-6.746093 58.859375 10.503906 19.054688 31.914062 29.382813 53.363281 25.734375 21.453125-3.648437 38.246093-20.46875 41.859375-41.925781h42.152344c23.730468 24.855469 61.167968 39.253906 111.652343 42.664063h1.117188c50.484375-3.371094 87.894531-17.789063 111.648437-42.664063h42.15625c3.539063 21.542969 20.351563 38.476563 41.871094 42.164063 21.523438 3.691406 43.015625-6.675782 53.527344-25.8125 10.511718-19.136719 7.730468-42.835938-6.925782-59.019532 13.542969-15.003906 16.96875-36.578125 8.738282-55.039062-8.226563-18.457032-26.5625-30.335938-46.769532-30.292969zm-92.726562-218.453125c18.335938-11.90625 34.625-26.695312 48.242188-43.792969 7.808593 38.59375 2.320312 72.0625-16.335938 99.839844-8.847656-19.644531-19.53125-38.410156-31.90625-56.046875zm45.585938-99.246094c2.148437-4.175781 6.519531-6.734375 11.214843-6.570312 5.054688.699218 9.269531 4.214844 10.863281 9.0625 17.664063 43.929687 37.136719 125.015625-21.488281 189.792968-1.835937-5.71875-4.035156-12-6.605469-18.691406 29.816407-37.597656 36.90625-84.582031 20.90625-139.792968-.90625-3.136719-3.523437-5.480469-6.738281-6.039063-3.21875-.554687-6.472656.773437-8.382812 3.421875-14.785157 21.542969-33.664063 39.96875-55.558594 54.226562-3.480469-4.433593-7.152344-8.847656-11.007813-13.234374 29.113282-17.109376 52.121094-47.957032 66.796876-72.175782zm-86.65625 75.660156c35.480468 38.382813 61.179687 84.757813 74.914062 135.191407 4.550781 15.316406 7.128906 31.148437 7.679688 47.113281.222656 11.539062 1.878906 23.003906 4.933593 34.132812-41.359375-.648437-73.496093-13.652343-95.503906-39.253906-49.195313-57.078125-38.28125-160.902344-31.15625-203.640625 13.679687 4.855469 26.058594 12.800781 36.164063 23.222657.949218.945312 1.828124 1.894531 2.96875 3.234374zm-102.875-26.457031c7.140624 42.738281 18.039062 146.5625-31.15625 203.667969-21.949219 25.480469-53.980469 38.5-95.503907 39.253906 3.054688-11.140625 4.710938-22.613281 4.929688-34.160156.550781-15.964844 3.132812-31.792969 7.679687-47.105469 13.789063-50.5625 39.582032-97.050781 75.1875-135.507812.855469-1.03125 1.75-1.980469 2.808594-3.039063 10.082031-10.371094 22.417969-18.277344 36.054688-23.109375zm-112.105469 106.089844c-18.660157-27.792969-24.148438-61.269531-16.339844-99.839844 13.621094 17.101563 29.914063 31.890625 48.257813 43.792969-12.375 17.636719-23.058594 36.402344-31.917969 56.046875zm-35.761719-152.765625c1.582031-4.859375 5.800781-8.394531 10.863281-9.097656 4.695313-.183594 9.074219 2.378906 11.210938 6.5625 14.679687 24.210937 37.683593 55.058594 66.800781 72.183594-3.851562 4.394531-7.515625 8.808593-10.992188 13.253906-21.902343-14.265625-40.785156-32.695313-55.578124-54.246094-1.90625-2.648438-5.160157-3.976562-8.378907-3.421875-3.21875.558594-5.835937 2.902344-6.742187 6.039063-16.03125 55.203124-8.90625 102.222656 20.917968 139.8125-2.5625 6.6875-4.78125 12.96875-6.613281 18.695312-58.625-64.777344-39.152343-145.867188-21.488281-189.78125zm14.191406 306.738281c1.382813 0 2.78125.085938 4.148438.085938 47.945312 0 85.332031-15.230469 111.308594-45.335938 54.433593-63.148437 42.296874-175.097656 34.804687-219.195312 10.128906-1.632813 20.457031-1.632813 30.585937 0-7.492187 44.089843-19.628906 156.003906 34.804688 219.203125 25.953125 30.113281 63.371094 45.335937 111.121094 45.335937 1.425781 0 2.894531-.058593 4.335937-.082031 3.105469 6.101562 7.355469 11.554688 12.519531 16.058594-12.675781 7.628906-21.363281 20.433594-23.773437 35.027344h-43.519531c.058594-4.105469-2.855469-7.660157-6.894532-8.402344-2.230468-.394532-4.523437.117187-6.378906 1.417968-1.851562 1.296876-3.113281 3.28125-3.503906 5.507813-.4375 2.617187-1.03125 5.207031-1.785156 7.75-1.664063 6.011719-4.101563 11.785156-7.253906 17.167969-9.914063 15.082031-27.925782 22.722656-45.660157 19.371094-10.007812-.691407-19.136719-5.953126-24.746093-14.265626-3.234376-6.476562-5.105469-13.546874-5.496094-20.773437-.257813-2.867187-.367188-5.800781-.425782-8.738281 24.105469-5.058594 42.554688-30.242188 42.554688-47.332032 0-10.640624-6.648438-28.5-51.199219-28.5-27.988281 0-44.75 6.824219-49.921875 20.699219-.832031 2.515625-1.265625 5.148438-1.277344 7.800781 0 17.066407 18.4375 42.273438 42.613282 47.332032-.058594 2.9375-.167969 5.863281-.425782 8.714844-.386718 7.226562-2.25 14.292968-5.480468 20.769531-5.625 8.34375-14.796875 13.621093-24.839844 14.292969-14.828125 1.757812-35.640625-2.226563-45.644531-19.40625-3.175781-5.441407-5.628907-11.273438-7.285157-17.355469-.726562-2.46875-1.296874-4.984375-1.707031-7.527344-.390625-2.226563-1.652343-4.210937-3.507812-5.507813-1.851563-1.300781-4.144531-1.8125-6.375-1.417968-4.039063.742187-6.953125 4.296875-6.894531 8.402344h-43.519532c-2.410156-14.59375-11.089844-27.398438-23.757812-35.035157 5.144531-4.511719 9.378906-9.960937 12.476562-16.0625zm165.546875 34.03125c-16.96875-1.855469-30.78125-14.492187-34.132812-31.230469.007812-.722656.109375-1.4375.304687-2.132812 1.613282-4.292969 11.425782-9.300781 33.828125-9.300781 15.75 0 34.132813 2.992187 34.132813 11.433593-3.355469 16.738282-17.164063 29.375-34.132813 31.230469zm0 128c-36.695312-2.558593-65.535156-11.144531-86.1875-25.597656h172.375c-20.652343 14.421875-49.496093 23.039063-86.1875 25.597656zm204.800781 0c-18.851562 0-34.132812-15.28125-34.132812-34.132812 0-4.710938-3.824219-8.53125-8.535156-8.53125h-324.265625c-4.714844 0-8.535157 3.820312-8.535157 8.53125.132813 15.40625-10.070312 28.992187-24.902343 33.160156-14.835938 4.164063-30.621094-2.125-38.527344-15.347656-7.90625-13.226563-5.972656-30.109375 4.722656-41.203125 7.519531 4.160156 15.976563 6.335937 24.574219 6.324218 4.714844 0 8.535156-3.820312 8.535156-8.53125 0-4.714843-3.820312-8.535156-8.535156-8.535156-7.394531.050782-14.59375-2.351562-20.480469-6.828125-12.839843-9.628906-17.238281-26.90625-10.558593-41.503906 6.675781-14.597656 22.621093-22.570313 38.304687-19.152344s26.867187 17.300781 26.867187 33.351563c0 4.710937 3.820313 8.53125 8.535157 8.53125h55.652343c1.789063 5.1875 4.054688 10.195312 6.769532 14.960937 11.523437 18.253907 31.871094 29.015625 53.441406 28.269531 2.988281-.003906 5.972656-.195312 8.9375-.5625 15.25-1.160156 29.070312-9.410156 37.332031-22.28125 8.214844 12.84375 21.980469 21.09375 37.179688 22.28125 2.953125.363282 5.925781.53125 8.898437.503907 21.625.894531 42.078125-9.847657 53.617188-28.160157 2.734375-4.773437 5.019531-9.792968 6.824218-14.992187h55.613282c4.710937 0 8.535156-3.820313 8.535156-8.535156-.132812-15.402344 10.070312-28.984375 24.902344-33.148438 14.828125-4.164062 30.609375 2.117188 38.519531 15.335938 7.90625 13.21875 5.984375 30.097656-4.699219 41.195312-7.527344-4.15625-15.988281-6.335937-24.589844-6.332031-4.714843 0-8.535156 3.820312-8.535156 8.53125 0 4.714844 3.820313 8.535156 8.535156 8.535156 18.851563 0 34.132813 15.28125 34.132813 34.132813 0 18.851562-15.28125 34.132812-34.132813 34.132812zm0 0"/></svg>