<?xml version="1.0" encoding="UTF-8"?>
<svg xmlns="http://www.w3.org/2000/svg" id="filled_outline" data-name="filled outline" viewBox="0 0 512 512" width="512" height="512"><path d="M208,296V126.11258a67.45762,67.45762,0,0,0-52.824-65.85125h-.00007A67.45762,67.45762,0,0,1,122.1098,42.1098L104,24V40.759A86.28914,86.28914,0,0,0,124,96l0,0a86.28914,86.28914,0,0,1,20,55.241V200Z" style="fill:#00b55b"/><path d="M192.78,233.55c-.33008-.34-.66-.66-.99-.98a90.85957,90.85957,0,0,0-37.88013-21.74A90.878,90.878,0,0,1,88,123.45V88l14.49,38.64a56.70908,56.70908,0,0,0,35.2,33.92A56.83769,56.83769,0,0,1,170.52,189.03Z" style="fill:#02c26a"/><path d="M440,24,425.34009,35.73a56.81863,56.81863,0,0,0-20.75,52.39,56.83888,56.83888,0,0,1-11.40015,42.92l-10.26,13.2L381.12,146.56A138.269,138.269,0,0,0,352,231.43,65.216,65.216,0,0,1,296,296H264V273.3A35.10517,35.10517,0,0,1,288,240a35.12791,35.12791,0,0,0,24-33.3V169A146.12758,146.12758,0,0,1,440,24Z" style="fill:#08d175"/><path d="M304,248l-16,48H202.66992L189.76,218.54a74.99969,74.99969,0,0,1,17.03-61.13A74.98769,74.98769,0,0,0,222.6,90.42a40.0259,40.0259,0,0,1,15.55993-42.25L272,24V48.07a44.016,44.016,0,0,0,10.2,28.17A67.89082,67.89082,0,0,1,289.39,152.69a67.92863,67.92863,0,0,0-1.37,63.35Z" style="fill:#02c26a"/><path d="M336,488V456l25.67459-25.67459A76.22372,76.22372,0,0,0,384,376.4271V376.427a76.22372,76.22372,0,0,0-14.19793-44.30414L344,296H168l-25.80207,36.1229A76.22372,76.22372,0,0,0,128,376.427v.00006a76.22372,76.22372,0,0,0,22.32541,53.89831L176,456v32Z" style="fill:#db8638"/><rect x="176" y="456" width="160" height="32" style="fill:#c47220"/><path d="M176,296v-1.18A66.82552,66.82552,0,0,0,132,232a66.84114,66.84114,0,0,1-44-62.82V123.45A90.878,90.878,0,0,0,153.90991,210.83,90.85957,90.85957,0,0,1,191.79,232.57c.33.32.65991.63995.99.98a90.58653,90.58653,0,0,1,22.37988,35.92L224,296Z" style="fill:#3cde8d"/><path d="M382.92993,144.24,381.12,146.56A138.269,138.269,0,0,0,352,231.43,65.216,65.216,0,0,1,296,296H264V273.3A35.10517,35.10517,0,0,1,288,240a35.12791,35.12791,0,0,0,24-33.3,58.2118,58.2118,0,0,1,45.59009-56.83Z" style="fill:#3cde8d"/><rect x="224" y="448" width="16" height="16"/><path d="M385.94092,89.37256l3.71582-3.71582L378.34326,74.34326l-3.71582,3.71582a104.91774,104.91774,0,0,0-8.69726,9.86621L378.57471,97.729A88.96909,88.96909,0,0,1,385.94092,89.37256Z"/><path d="M129.26611,239.51855a59.05518,59.05518,0,0,1,38.33643,48.50538,7.98888,7.98888,0,0,0-6.11231,3.32617l-25.80224,36.123a84.22342,84.22342,0,0,0,8.98047,108.50879L168,459.31348V488a7.99977,7.99977,0,0,0,8,8H336a7.99977,7.99977,0,0,0,8-8V459.31348l23.33154-23.33155A84.22342,84.22342,0,0,0,376.312,327.47314l-25.80224-36.123A7.99921,7.99921,0,0,0,344,288H333.24976A73.05026,73.05026,0,0,0,360,231.43164a130.86114,130.86114,0,0,1,27.43506-79.96l12.07275-15.52246a65.14359,65.14359,0,0,0,13.001-48.95606A49.00838,49.00838,0,0,1,430.3374,41.9751l14.66016-11.728A7.99985,7.99985,0,0,0,439.00781,16.062,154.36625,154.36625,0,0,0,304,168.99609v37.70557a27.04162,27.04162,0,0,1-4.35071,14.7085l-4.476-8.95215a59.87272,59.87272,0,0,1,1.21436-55.88281,75.90437,75.90437,0,0,0-8.04151-85.45606A36.07882,36.07882,0,0,1,280,48.06592V24a8,8,0,0,0-12.6499-6.50977L233.51025,41.66162a47.73008,47.73008,0,0,0-18.6665,50.69873,66.92784,66.92784,0,0,1,.92871,28.085,75.41935,75.41935,0,0,0-58.86133-67.99365A59.36009,59.36009,0,0,1,127.7666,36.45312L109.65674,18.34326A7.99981,7.99981,0,0,0,96,24V40.75879a94.46458,94.46458,0,0,0,21.85449,60.36279A78.437,78.437,0,0,1,136,151.24121v.08911A48.51764,48.51764,0,0,1,109.98145,123.833L95.49072,85.19092A8.00009,8.00009,0,0,0,80,88v81.18115A75.07222,75.07222,0,0,0,129.26611,239.51855ZM363.29248,336.773a68.22446,68.22446,0,0,1-7.27441,87.89551L332.68652,448H256v16h72v16H184V456a7.99877,7.99877,0,0,0-2.34326-5.65674l-25.67481-25.6748a68.22446,68.22446,0,0,1-7.27441-87.89551L172.1167,304H339.8833ZM410.43066,39.36621a65.112,65.112,0,0,0-13.76074,49.88965,49.0608,49.0608,0,0,1-9.792,36.87012l-8.49951,10.9281-17.68433,3.93a88.87855,88.87855,0,0,1,9.926-31.0368l-14.082-7.59668a104.95369,104.95369,0,0,0-12.35022,43.48785,66.49851,66.49851,0,0,0-24.07434,17.581A138.4685,138.4685,0,0,1,410.43066,39.36621ZM320,206.70166a49.92,49.92,0,0,1,39.3252-49.023l5.356-1.19025A147.03977,147.03977,0,0,0,344,231.43164,57.50324,57.50324,0,0,1,295.35205,288H272V273.29834a27.065,27.065,0,0,1,18.52979-25.709A43.04435,43.04435,0,0,0,320,206.70166ZM230.36621,88.47949a31.81966,31.81966,0,0,1,12.44385-33.79834L264,39.54541v8.52051A52.10762,52.10762,0,0,0,276.05469,81.3623a60.281,60.281,0,0,1,6.34668,67.44288,75.86355,75.86355,0,0,0-1.53858,70.8081l6.11377,12.22791c-.49682.19885-.99341.3985-1.50635.56945A43.04435,43.04435,0,0,0,256,273.29834V288h-1.75366l-14.52222-58.0874a56.84554,56.84554,0,0,1,11.44043-50.01367,73.119,73.119,0,0,0,16.5083-53.46045l-15.92676,1.53027a57.01917,57.01917,0,0,1-12.87255,41.687A72.89724,72.89724,0,0,0,224.20166,233.793L237.75366,288h-7.98779l-7.0188-21.05615a98.82022,98.82022,0,0,0-23.1272-37.88581l-1.97143-11.83a66.82817,66.82817,0,0,1,15.21631-54.61035A83.12538,83.12538,0,0,0,230.36621,88.47949Zm-100.2207,2.39893a78.44337,78.44337,0,0,1-18.10205-47.52149l4.40966,4.40967a75.33559,75.33559,0,0,0,36.98731,20.3042A59.45715,59.45715,0,0,1,200,126.11279v26.9516a82.90567,82.90567,0,0,0-16,30.05927V132.84424a62.23364,62.23364,0,0,0-6.30811-27.22363l-14.36914,7.03808A46.14159,46.14159,0,0,1,168,132.84424v38.364a63.98216,63.98216,0,0,0-16-12.97217v-6.99487A94.46458,94.46458,0,0,0,130.14551,90.87842Zm5.01758,77.27539a48.447,48.447,0,0,1,28.19726,24.45557l8.19287,16.38562a98.9688,98.9688,0,0,0-15.44482-5.85584A83.28624,83.28624,0,0,1,96.60107,133.3089,64.45271,64.45271,0,0,0,135.16309,168.15381ZM99.93848,182.99463a98.124,98.124,0,0,0,51.77441,35.5293,82.834,82.834,0,0,1,55.85547,53.47949L212.90063,288H183.67407a75.09836,75.09836,0,0,0-48.94018-63.51855A59.05977,59.05977,0,0,1,96.75146,178.523Q98.27783,180.79272,99.93848,182.99463Z"/><rect x="249.11816" y="103.90746" width="16" height="13.60305" transform="translate(-14.70208 43.77628) rotate(-9.46232)"/><path d="M157.11572,103.168l12.20606-10.34473a61.86823,61.86823,0,0,0-12.88428-11.48l-8.875,13.31348A45.86287,45.86287,0,0,1,157.11572,103.168Z"/></svg>
