<svg id="Capa_1" enable-background="new 0 0 512 512" height="512" viewBox="0 0 512 512" width="512" xmlns="http://www.w3.org/2000/svg"><g><g><path d="m500.666 231.412c-10.595-21.984-10.595-47.783 0-69.767 6.883-14.282 4.619-32.887-7.913-45.419l-96.98-96.98c-12.531-12.531-31.136-14.796-45.419-7.913-21.984 10.595-47.783 10.595-69.767 0-14.587-7.029-33.113-4.39-45.417 7.914l-8.975 8.975c-105.295 105.295-83.99 281.431 43.373 358.584l70.502 42.708 44.723-44.723 51.43-51.43v-10.606h10.606l45.925-45.925c12.303-12.303 14.943-30.829 7.912-45.418z" fill="#ffce71"/><path d="m243.227 315.815c-29.704-55.939-43.1-118.117-40.011-179.761 1.834-36.604 9.481-73.02 22.978-107.831l-36.95 36.95v10.606h-10.607l-51.43 51.43-107.96 107.961c-12.304 12.304-14.944 30.83-7.913 45.419 10.595 21.984 10.595 47.783 0 69.767-6.883 14.282-4.619 32.887 7.913 45.419l96.98 96.98c12.531 12.531 31.136 14.796 45.419 7.913 21.984-10.595 47.783-10.595 69.767 0 14.589 7.031 33.115 4.391 45.419-7.913l63.238-63.238c-39.651-30.017-72.896-68.604-96.843-113.702z" fill="#ffb357"/></g><g><path d="m440.897 149.223-78.141-78.141c-15.123 5.388-31.224 8.199-47.284 8.199s-32.161-2.811-47.284-8.199c-4.099 4.099-31.664 31.664-64.971 64.971l-12.873 32.462v220.723h105.15c57.669-57.669 143.248-143.248 145.404-145.404-11.039-30.674-11.039-63.937-.001-94.611z" fill="#8288cb"/><path d="m203.216 136.054c-54.879 54.879-125.343 125.343-132.112 132.112 11.038 30.675 11.038 63.938 0 94.612l78.141 78.141c15.124-5.389 31.224-8.199 47.285-8.199 16.06 0 32.161 2.81 47.284 8.199.443-.443 22.473-22.474 51.679-51.68-20.33-21.857-37.957-46.479-52.266-73.424-29.705-55.941-43.101-118.116-40.011-179.761z" fill="#676fb2"/></g><g><path d="m266.437 345.437c25.479-7.855 17.091-5.269 28.195-8.692 21.857-6.738 26.358-35.659 7.615-48.939l-24.177-17.132.294-29.548c.228-22.907-25.911-36.28-44.233-22.631l-23.633 17.607-42.859 42.859 74.049 74.049z" fill="#ffce71"/><path d="m211.958 304.332c-10.908-21.32-11.446-46.463-1.461-68.23l-21.129-7.218-6.884-2.352c-10.823-3.697-21.433-.386-28.395 6.558-6.944 6.943-10.271 17.527-6.558 28.396l2.352 6.885 7.218 21.129-17.607 23.633c-13.649 18.322-.276 44.461 22.631 44.233l29.548-.294 17.132 24.176c13.281 18.742 42.201 14.242 48.94-7.616l8.692-28.195c-23.496-4.638-43.571-19.785-54.479-41.105z" fill="#ffb357"/></g><g><path d="m453.393 305.583-11.869 11.869-5.08-5.08c-2.904-2.904-7.674-3.199-10.664-.384-3.094 2.913-3.149 7.785-.166 10.768l5.303 5.303-159.39 159.391c-10.292 10.292-25.429 11.97-36.859 6.46-23.622-11.384-51.867-11.766-76.278 0-11.242 5.418-26.444 3.958-36.86-6.459l-96.979-96.979c-10.407-10.406-11.885-25.601-6.46-36.86 11.362-23.575 11.789-51.818 0-76.279-5.507-11.427-3.837-26.56 6.46-36.858l50.363-50.363c2.983-2.983 2.928-7.854-.166-10.767-2.99-2.815-7.76-2.52-10.664.384l-50.14 50.14c-8.992 8.99-13.944 20.972-13.944 33.738 0 7.026 1.583 14.024 4.578 20.238 9.418 19.541 9.771 42.979 0 63.254-2.99 6.205-4.571 13.21-4.571 20.259 0 12.757 4.95 24.732 13.937 33.719l96.979 96.979c8.986 8.987 20.961 13.936 33.719 13.936 7.049 0 14.055-1.58 20.26-4.57 19.54-9.418 42.979-9.771 63.254 0 6.214 2.995 13.213 4.578 20.24 4.578 12.765 0 24.746-4.952 33.738-13.944 1.798-1.798 121.438-121.438 181.87-181.87 2.929-2.929 2.926-7.675-.003-10.604s-7.679-2.928-10.608.001z"/><path d="m507.421 228.156c-9.4-19.506-9.79-42.942.001-63.255 2.99-6.206 4.57-13.211 4.57-20.259 0-12.758-4.949-24.733-13.937-33.719l-96.979-96.979c-8.987-8.987-20.962-13.936-33.719-13.936-7.049 0-14.055 1.58-20.261 4.57-19.741 9.516-43.185 9.671-63.253 0-6.213-2.995-13.213-4.578-20.242-4.578-12.763 0-24.744 4.952-33.735 13.944-4.546 4.546-133.326 133.327-144.345 144.346-2.983 2.983-2.928 7.854.166 10.767 2.99 2.815 7.76 2.52 10.664-.384l87.591-87.592 5.081 5.081c2.904 2.904 7.674 3.199 10.664.384 3.094-2.913 3.149-7.784.166-10.767l-5.304-5.304 45.925-45.925c10.291-10.293 25.427-11.969 36.859-6.459 23.62 11.383 51.867 11.767 76.277 0 11.223-5.407 26.425-3.975 36.86 6.459l96.98 96.98c10.407 10.407 11.884 25.601 6.46 36.858-11.386 23.621-11.767 51.867 0 76.281 5.52 11.445 3.818 26.578-6.461 36.858l-12.842 12.842c-2.929 2.929-2.929 7.678 0 10.607s7.683 2.924 10.612-.005c7.469-7.469 12.115-12.115 12.837-12.837 8.992-8.993 13.944-20.976 13.944-33.741 0-7.026-1.583-14.025-4.579-20.237z"/><path d="m64.047 270.705c10.227 28.42 10.671 59.876 0 89.534-.983 2.733-.3 5.788 1.754 7.842l78.141 78.141c2.053 2.053 5.1 2.731 7.82 1.762 28.437-10.131 59.857-10.574 89.534 0 2.729.973 5.773.288 7.821-1.762l149.982-149.982 5.027 5.027c2.93 2.929 7.678 2.929 10.607 0s2.929-7.678 0-10.606l-5.028-5.028c14.928-14.928 35.798-35.799 36.496-36.497 2.053-2.054 2.735-5.108 1.752-7.841-10.253-28.492-10.645-59.949 0-89.533.983-2.733.301-5.789-1.753-7.842l-78.14-78.141c-2.049-2.049-5.093-2.734-7.821-1.762-28.44 10.132-59.856 10.573-89.534 0-2.728-.971-5.772-.287-7.82 1.762l-36.517 36.517-5.029-5.029c-2.929-2.929-7.678-2.929-10.606 0-2.929 2.929-2.929 7.678 0 10.606l5.029 5.029-149.961 149.96c-2.055 2.054-2.738 5.11-1.754 7.843zm15.665-.541 146.656-146.655 5.853 5.853c2.929 2.929 7.678 2.929 10.606 0 2.929-2.929 2.929-7.678 0-10.606l-5.853-5.853 33.223-33.223c29.502 9.47 61.039 9.473 90.55 0l71.541 71.542c-9.562 29.509-9.564 61.103 0 90.615-4.032 4.032-22.702 22.702-33.19 33.19l-5.853-5.853c-2.93-2.929-7.678-2.929-10.607 0s-2.929 7.678 0 10.606l5.854 5.854-146.688 146.687c-29.504-9.47-61.043-9.471-90.55 0l-71.542-71.541c9.562-29.511 9.564-61.103 0-90.616z"/><path d="m275.198 172.338c2.929 2.929 7.678 2.929 10.606 0 2.929-2.929 2.929-7.678 0-10.606l-21.488-21.488c-2.929-2.929-7.678-2.929-10.606 0-2.929 2.929-2.929 7.678 0 10.606z"/><path d="m361.15 258.292c2.93 2.929 7.678 2.929 10.607 0s2.929-7.678 0-10.606l-21.488-21.488c-2.93-2.929-7.678-2.929-10.607 0s-2.929 7.678 0 10.606z"/><path d="m318.174 215.315c2.928 2.928 7.676 2.93 10.606 0 2.929-2.929 2.929-7.678 0-10.606l-21.488-21.488c-2.929-2.929-7.678-2.929-10.606 0-2.929 2.929-2.929 7.678 0 10.606z"/><path d="m175.945 333.725c2.929 2.929 7.678 2.929 10.607 0s2.929-7.678 0-10.607l-8.485-8.485c-2.929-2.929-7.678-2.929-10.607 0s-2.929 7.678 0 10.607z"/><path d="m244.118 265.551c2.929 2.929 7.678 2.929 10.607 0s2.929-7.678 0-10.607l-8.485-8.485c-2.929-2.929-7.678-2.929-10.607 0s-2.929 7.678 0 10.606z"/><path d="m202.926 313.207c17.772 1.22 32.5-13.524 31.28-31.281-.284-4.133-3.864-7.252-7.996-6.969-4.132.284-7.253 3.864-6.969 7.996.597 8.695-6.601 15.885-15.288 15.288-4.132-.284-7.712 2.837-7.996 6.969-.283 4.133 2.837 7.713 6.969 7.997z"/><path d="m161.828 364.866 25.995-.257 14.863 20.974c16.88 23.821 53.659 18.042 62.226-9.743l7.524-24.405 24.405-7.524c27.782-8.564 33.569-45.343 9.743-62.226l-20.975-14.862.255-25.624.002-.371c0-28.759-32.957-45.675-56.215-28.348l-20.466 15.247-24.276-8.293c-27.564-9.415-53.913 16.844-44.475 44.476l8.293 24.275-15.247 20.466c-17.321 23.253-.418 56.215 28.348 56.215zm-16.319-47.254 17.606-23.633c1.477-1.982 1.882-4.565 1.083-6.905l-9.57-28.014c-5.466-16.006 9.816-30.766 25.431-25.432l28.014 9.57c2.339.8 4.923.395 6.905-1.083l23.633-17.606c13.362-9.954 32.254-.125 32.254 16.319l-.295 29.771c-.024 2.458 1.157 4.772 3.163 6.194l24.177 17.132c13.643 9.667 10.47 30.733-5.489 35.653l-28.194 8.692c-2.371.731-4.227 2.586-4.958 4.958l-8.692 28.195c-4.921 15.96-25.985 19.132-35.653 5.489l-17.132-24.176c-1.474-2.081-3.873-3.208-6.194-3.163l-29.547.294-.223.001c-16.441-.002-26.276-18.89-16.319-32.256z"/></g></g></svg>