<svg height="512pt" viewBox="0 -64 512 511" width="512pt" xmlns="http://www.w3.org/2000/svg"><path d="m7.605469 57.191406v270.980469c0 26.339844 21.351562 47.695313 47.695312 47.695313h401.398438c26.34375 0 47.695312-21.355469 47.695312-47.695313v-270.980469c0-27.109375-21.976562-49.089844-49.085937-49.089844h-398.617188c-27.109375.003907-49.085937 21.980469-49.085937 49.089844zm0 0" fill="#fec970"/><g fill="#fba028"><path d="m149.855469 177.234375-142.246094-118.4375v-1.601563c0-27.109374 21.96875-49.089843 49.082031-49.089843h81.707032c-86.71875 0-78.472657 60.464843 11.457031 169.128906zm0 0"/><path d="m331.4375 191.984375c0 52.863281-42.855469 95.714844-95.714844 95.714844-52.863281 0-95.714844-42.851563-95.714844-95.714844 0-52.859375 42.851563-95.714844 95.714844-95.714844 52.859375 0 95.714844 42.855469 95.714844 95.714844zm0 0"/><path d="m448.121094 105.660156-134.683594 112.132813c-33.273438 27.71875-81.59375 27.71875-114.878906 0l-134.671875-112.132813-3.308594-2.753906-48.964844-65.167969c-2.574219 5.960938-4.003906 12.542969-4.003906 19.457031v270.972657c0 26.339843 21.351563 47.695312 47.691406 47.695312h202.730469s-61.953125-7.195312-114.902344-27.472656c-43.191406-16.539063-79.242187-60.535156-79.242187-106.789063v-61.8125c0-16.648437 19.414062-25.746093 32.210937-15.09375l102.460938 85.316407c33.285156 27.71875 81.605468 27.71875 114.878906 0l134.683594-112.132813 56.277344-46.863281v-32.214844zm0 0"/></g><path d="m351.714844 191.984375c0 52.863281-42.851563 95.714844-95.714844 95.714844s-95.714844-42.851563-95.714844-95.714844c0-52.859375 42.851563-95.714844 95.714844-95.714844s95.714844 42.855469 95.714844 95.714844zm0 0" fill="#ffc217"/><path d="m455.308594.5h-83.722656c-4.199219 0-7.605469 3.40625-7.605469 7.605469s3.40625 7.601562 7.605469 7.601562h83.722656c22.234375 0 40.429687 17.582031 41.433594 39.570313l-139.484376 116.136718c-9.5625-47.148437-51.328124-82.75-101.257812-82.75-49.925781 0-91.695312 35.601563-101.257812 82.746094l-139.484376-116.140625c1.007813-21.984375 19.203126-39.5625 41.433594-39.5625h284.476563c4.199219 0 7.601562-3.402343 7.601562-7.601562s-3.402343-7.605469-7.601562-7.605469h-284.476563c-31.257812 0-56.691406 25.433594-56.691406 56.691406v270.980469c0 30.492187 24.808594 55.296875 55.300781 55.296875h66.875c4.199219 0 7.605469-3.402344 7.605469-7.601562 0-4.199219-3.40625-7.605469-7.605469-7.605469h-66.875c-22.109375 0-40.09375-17.984375-40.09375-40.089844v-253.152344l137.503907 114.492188c-.015626.824219-.03125 1.648437-.03125 2.472656 0 56.96875 46.351562 103.320313 103.320312 103.320313s103.320312-46.351563 103.320312-103.320313c0-.824219-.015624-1.648437-.03125-2.472656l137.503907-114.484375v253.144531c0 22.105469-17.984375 40.089844-40.09375 40.089844h-304.105469c-4.199219 0-7.605469 3.40625-7.605469 7.605469 0 4.199218 3.40625 7.601562 7.605469 7.601562h304.105469c30.492187 0 55.300781-24.804688 55.300781-55.296875v-270.980469c0-31.257812-25.433594-56.691406-56.691406-56.691406zm-199.308594 279.59375c-48.585938 0-88.109375-39.523438-88.109375-88.109375 0-48.582031 39.523437-88.109375 88.109375-88.109375s88.109375 39.527344 88.109375 88.109375c0 48.585937-39.523437 88.109375-88.109375 88.109375zm0 0"/><path d="m453.234375 343.148438c1.417969 1.183593 3.144531 1.761718 4.859375 1.761718 2.179688 0 4.34375-.933594 5.847656-2.742187 2.6875-3.226563 2.25-8.019531-.980468-10.707031l-98.421876-81.949219c-3.226562-2.6875-8.023437-2.25-10.710937.976562-2.6875 3.230469-2.25 8.023438.980469 10.710938zm0 0"/><path d="m158.171875 250.5c-2.6875-3.226562-7.484375-3.667969-10.710937-.980469l-98.414063 81.941407c-3.226563 2.6875-3.664063 7.480468-.980469 10.707031 1.503906 1.808593 3.667969 2.742187 5.851563 2.742187 1.710937 0 3.4375-.578125 4.859375-1.761718l98.414062-81.941407c3.230469-2.6875 3.667969-7.480469.980469-10.707031zm0 0"/><path d="m257.316406 130.21875c-39.769531 0-63.511718 25.515625-63.511718 68.25 0 47.296875 30.03125 64.078125 55.75 64.078125 12.597656 0 35.105468-4.515625 35.105468-13.515625 0-3.042969-2.757812-7.460938-7.082031-7.460938-1.722656 0-3.46875.707032-5.683594 1.597657-4.039062 1.625-10.140625 4.085937-20.636719 4.085937-35.855468 0-41.210937-30.6875-41.210937-48.976562 0-23.894532 8.171875-52.382813 47.082031-52.382813 30.613282 0 46.136719 16.921875 46.136719 50.300781 0 6.070313-.707031 25.871094-9.777344 25.871094-3.644531 0-6.355469-2.707031-6.933593-6.910156v-31.460938c0-16.628906-11.710938-26.960937-30.5625-26.960937-5.984376 0-12.578126 1.140625-17.632813 3.050781-8.023437 3.035156-9.710937 6.851563-9.710937 9.519532 0 3.132812 2.5 8.972656 7.269531 8.972656 1.640625 0 2.992187-.707032 4.558593-1.527344 2.582032-1.355469 6.121094-3.207031 13.433594-3.207031 10.699219 0 15.265625 3.773437 15.265625 12.617187v.871094h-5.039062c-18.636719 0-40.03125 2.785156-40.03125 24.503906 0 14.75 9.867187 23.554688 26.394531 23.554688 10.148438 0 16.441406-3.410156 22.339844-9.09375 3.40625 6.335937 11.042968 10.609375 19.703125 10.609375 16.882812 0 26.960937-15.816407 26.960937-42.304688 0-40.722656-22.667968-64.082031-62.1875-64.082031zm12.238282 70.40625v6.742188c0 5.425781-6.457032 12.996093-16.972657 12.996093-6.738281 0-10.152343-2.972656-10.152343-8.828125 0-7.953125 6.191406-10.910156 22.839843-10.910156zm0 0"/></svg>